<mxfile host="65bd71144e">
    <diagram id="gfYvduFHh6n4tYGZmPMZ" name="Page-1">
        <mxGraphModel dx="2363" dy="2133" grid="1" gridSize="10" guides="1" tooltips="1" connect="1" arrows="1" fold="1" page="1" pageScale="1" pageWidth="850" pageHeight="1100" math="0" shadow="0">
            <root>
                <mxCell id="0"/>
                <mxCell id="1" parent="0"/>
                <mxCell id="2" value="" style="edgeStyle=none;html=1;entryX=0.5;entryY=0;entryDx=0;entryDy=0;" edge="1" parent="1" source="4" target="10">
                    <mxGeometry relative="1" as="geometry">
                        <Array as="points"/>
                    </mxGeometry>
                </mxCell>
                <mxCell id="3" style="edgeStyle=none;html=1;exitX=1;exitY=0.5;exitDx=0;exitDy=0;entryX=0.5;entryY=0;entryDx=0;entryDy=0;" edge="1" parent="1" source="4" target="144">
                    <mxGeometry relative="1" as="geometry">
                        <mxPoint x="8.249999999999886" y="-68.49999999999977" as="targetPoint"/>
                        <Array as="points">
                            <mxPoint x="13" y="-168.5"/>
                        </Array>
                    </mxGeometry>
                </mxCell>
                <mxCell id="4" value="is it known which exact SQL databases would need to be involved?" style="rhombus;whiteSpace=wrap;html=1;rounded=0;fillColor=#d5e8d4;strokeColor=#82b366;" vertex="1" parent="1">
                    <mxGeometry x="-214.75" y="-228.5" width="110" height="120" as="geometry"/>
                </mxCell>
                <mxCell id="5" value="" style="edgeStyle=none;html=1;" edge="1" parent="1" source="7" target="25">
                    <mxGeometry relative="1" as="geometry">
                        <mxPoint x="-50" y="630.5" as="targetPoint"/>
                    </mxGeometry>
                </mxCell>
                <mxCell id="6" value="" style="edgeStyle=none;html=1;" edge="1" parent="1" source="7" target="12">
                    <mxGeometry relative="1" as="geometry"/>
                </mxCell>
                <mxCell id="7" value="do we know the NoSQL structure everything will be implented into?" style="rhombus;whiteSpace=wrap;html=1;rounded=0;fillColor=#d5e8d4;strokeColor=#82b366;" vertex="1" parent="1">
                    <mxGeometry x="386" y="80.5" width="110" height="120" as="geometry"/>
                </mxCell>
                <mxCell id="8" style="edgeStyle=none;html=1;exitX=1;exitY=0.25;exitDx=0;exitDy=0;entryX=0;entryY=0.5;entryDx=0;entryDy=0;" edge="1" parent="1" source="10" target="144">
                    <mxGeometry relative="1" as="geometry">
                        <mxPoint x="-32.120000000000005" y="-24.580000000000155" as="targetPoint"/>
                    </mxGeometry>
                </mxCell>
                <mxCell id="9" value="" style="edgeStyle=none;html=1;" edge="1" parent="1" source="10" target="50">
                    <mxGeometry relative="1" as="geometry"/>
                </mxCell>
                <mxCell id="10" value="request more information from NZ Bank" style="whiteSpace=wrap;html=1;rounded=0;" vertex="1" parent="1">
                    <mxGeometry x="-224.75" y="-41.5" width="130" height="60" as="geometry"/>
                </mxCell>
                <mxCell id="11" style="edgeStyle=none;html=1;exitX=0.5;exitY=1;exitDx=0;exitDy=0;" edge="1" parent="1" source="12" target="18">
                    <mxGeometry relative="1" as="geometry"/>
                </mxCell>
                <mxCell id="12" value="figure out structure plan" style="whiteSpace=wrap;html=1;rounded=0;" vertex="1" parent="1">
                    <mxGeometry x="380" y="220.5" width="120" height="60" as="geometry"/>
                </mxCell>
                <mxCell id="13" style="edgeStyle=none;html=1;exitX=0;exitY=0.5;exitDx=0;exitDy=0;entryX=1;entryY=0.5;entryDx=0;entryDy=0;" edge="1" parent="1" source="15" target="160">
                    <mxGeometry relative="1" as="geometry"/>
                </mxCell>
                <mxCell id="14" style="edgeStyle=none;html=1;exitX=0.5;exitY=1;exitDx=0;exitDy=0;entryX=0.5;entryY=0;entryDx=0;entryDy=0;" edge="1" parent="1" source="15" target="163">
                    <mxGeometry relative="1" as="geometry"/>
                </mxCell>
                <mxCell id="15" value="does the data consist mostly of documents?" style="rhombus;whiteSpace=wrap;html=1;rounded=0;fillColor=#d5e8d4;strokeColor=#82b366;" vertex="1" parent="1">
                    <mxGeometry x="400" y="520.08" width="80" height="80" as="geometry"/>
                </mxCell>
                <mxCell id="16" style="edgeStyle=none;html=1;exitX=0.5;exitY=1;exitDx=0;exitDy=0;entryX=0.5;entryY=0;entryDx=0;entryDy=0;" edge="1" parent="1" source="18" target="21">
                    <mxGeometry relative="1" as="geometry"/>
                </mxCell>
                <mxCell id="17" value="" style="edgeStyle=none;html=1;" edge="1" parent="1" source="18" target="156">
                    <mxGeometry relative="1" as="geometry"/>
                </mxCell>
                <mxCell id="18" value="is the data represented best with key value tables?" style="rhombus;whiteSpace=wrap;html=1;rounded=0;fillColor=#d5e8d4;strokeColor=#82b366;" vertex="1" parent="1">
                    <mxGeometry x="400" y="304.08" width="80" height="80" as="geometry"/>
                </mxCell>
                <mxCell id="19" style="edgeStyle=none;html=1;exitX=0;exitY=0.5;exitDx=0;exitDy=0;entryX=1;entryY=0.5;entryDx=0;entryDy=0;" edge="1" parent="1" source="21" target="158">
                    <mxGeometry relative="1" as="geometry"/>
                </mxCell>
                <mxCell id="20" style="edgeStyle=none;html=1;exitX=0.5;exitY=1;exitDx=0;exitDy=0;entryX=0.5;entryY=0;entryDx=0;entryDy=0;" edge="1" parent="1" source="21" target="15">
                    <mxGeometry relative="1" as="geometry"/>
                </mxCell>
                <mxCell id="21" value="is the data more suited towards column-like operations?" style="rhombus;whiteSpace=wrap;html=1;rounded=0;fillColor=#d5e8d4;strokeColor=#82b366;" vertex="1" parent="1">
                    <mxGeometry x="392.5" y="417.08" width="95" height="80" as="geometry"/>
                </mxCell>
                <mxCell id="22" style="edgeStyle=none;html=1;exitX=1;exitY=0.5;exitDx=0;exitDy=0;entryX=0.5;entryY=1;entryDx=0;entryDy=0;" edge="1" parent="1" source="23" target="25">
                    <mxGeometry relative="1" as="geometry">
                        <Array as="points">
                            <mxPoint x="350" y="870.5"/>
                            <mxPoint x="350" y="910.5"/>
                            <mxPoint x="530" y="910.5"/>
                            <mxPoint x="600" y="910.5"/>
                        </Array>
                    </mxGeometry>
                </mxCell>
                <mxCell id="23" value="compile plan based on database structuring" style="whiteSpace=wrap;html=1;rounded=0;" vertex="1" parent="1">
                    <mxGeometry x="179" y="840.08" width="120" height="60" as="geometry"/>
                </mxCell>
                <mxCell id="370" style="edgeStyle=none;html=1;exitX=1;exitY=0.5;exitDx=0;exitDy=0;entryX=0;entryY=0.5;entryDx=0;entryDy=0;" edge="1" parent="1" source="25" target="209">
                    <mxGeometry relative="1" as="geometry"/>
                </mxCell>
                <mxCell id="25" value="identify differences between the two structures" style="rounded=0;whiteSpace=wrap;html=1;" vertex="1" parent="1">
                    <mxGeometry x="542" y="111.5" width="120" height="60" as="geometry"/>
                </mxCell>
                <mxCell id="26" value="" style="edgeStyle=none;html=1;entryX=0.5;entryY=0;entryDx=0;entryDy=0;" edge="1" parent="1" source="27" target="32">
                    <mxGeometry relative="1" as="geometry">
                        <mxPoint x="1755.2100000000003" y="2187.5" as="targetPoint"/>
                    </mxGeometry>
                </mxCell>
                <mxCell id="27" value="map the data fields between corresponding SQL and NoSQL databases" style="rounded=0;whiteSpace=wrap;html=1;" vertex="1" parent="1">
                    <mxGeometry x="1685.91" y="2087.5" width="140" height="60" as="geometry"/>
                </mxCell>
                <mxCell id="28" value="" style="edgeStyle=none;html=1;exitX=0.5;exitY=1;exitDx=0;exitDy=0;" edge="1" parent="1" source="32">
                    <mxGeometry relative="1" as="geometry">
                        <mxPoint x="1708.91" y="2247.5" as="sourcePoint"/>
                        <mxPoint x="1754.8999999999996" y="2356.500000000001" as="targetPoint"/>
                    </mxGeometry>
                </mxCell>
                <mxCell id="29" style="edgeStyle=none;html=1;exitX=0.5;exitY=1;exitDx=0;exitDy=0;entryX=0.5;entryY=0;entryDx=0;entryDy=0;" edge="1" parent="1" source="30" target="245">
                    <mxGeometry relative="1" as="geometry">
                        <mxPoint x="1267.64" y="2356" as="targetPoint"/>
                        <Array as="points">
                            <mxPoint x="1579.64" y="2326"/>
                            <mxPoint x="1755" y="2326"/>
                        </Array>
                    </mxGeometry>
                </mxCell>
                <mxCell id="30" value="list differences (eg. conventions or structures)" style="rounded=0;whiteSpace=wrap;html=1;" vertex="1" parent="1">
                    <mxGeometry x="1517.46" y="2296" width="124.36" height="60" as="geometry"/>
                </mxCell>
                <mxCell id="31" style="edgeStyle=none;html=1;exitX=0;exitY=0.5;exitDx=0;exitDy=0;entryX=1;entryY=0.5;entryDx=0;entryDy=0;" edge="1" parent="1" source="32" target="93">
                    <mxGeometry relative="1" as="geometry"/>
                </mxCell>
                <mxCell id="32" value="have the differences in data types been accounted for?" style="rhombus;whiteSpace=wrap;html=1;fillColor=#d5e8d4;strokeColor=#82b366;" vertex="1" parent="1">
                    <mxGeometry x="1699.91" y="2177.5" width="110" height="120" as="geometry"/>
                </mxCell>
                <mxCell id="33" value="data integration process" style="ellipse;whiteSpace=wrap;html=1;fillColor=#e1d5e7;strokeColor=#9673a6;" vertex="1" parent="1">
                    <mxGeometry x="-440" y="-640" width="120" height="80" as="geometry"/>
                </mxCell>
                <mxCell id="34" value="" style="edgeStyle=none;html=1;fontSize=16;exitX=0.5;exitY=1;exitDx=0;exitDy=0;startArrow=none;" edge="1" parent="1" source="106" target="36">
                    <mxGeometry relative="1" as="geometry">
                        <mxPoint x="-369.75" y="-408.5" as="sourcePoint"/>
                    </mxGeometry>
                </mxCell>
                <mxCell id="35" value="" style="edgeStyle=none;html=1;fontSize=9;" edge="1" parent="1" source="36" target="38">
                    <mxGeometry relative="1" as="geometry"/>
                </mxCell>
                <mxCell id="36" value="&lt;font style=&quot;font-size: 9px;&quot;&gt;Has it been understood of what has been assigned ?&lt;/font&gt;" style="rhombus;whiteSpace=wrap;html=1;fillColor=#d5e8d4;strokeColor=#82b366;" vertex="1" parent="1">
                    <mxGeometry x="-417.5" y="-353.5" width="77.5" height="110" as="geometry"/>
                </mxCell>
                <mxCell id="37" style="edgeStyle=none;html=1;exitX=1;exitY=0.5;exitDx=0;exitDy=0;entryX=0;entryY=0.5;entryDx=0;entryDy=0;" edge="1" parent="1" source="38" target="4">
                    <mxGeometry relative="1" as="geometry"/>
                </mxCell>
                <mxCell id="38" value="Enquire NZ Bank to supply more information on what needs to happen." style="whiteSpace=wrap;html=1;" vertex="1" parent="1">
                    <mxGeometry x="-434.75" y="-198.5" width="120" height="60" as="geometry"/>
                </mxCell>
                <mxCell id="39" value="&lt;font style=&quot;font-size: 9px;&quot;&gt;no&lt;/font&gt;" style="text;html=1;strokeColor=none;fillColor=none;align=center;verticalAlign=middle;whiteSpace=wrap;rounded=0;fontSize=16;" vertex="1" parent="1">
                    <mxGeometry x="-420" y="-259.5" width="60" height="30" as="geometry"/>
                </mxCell>
                <mxCell id="40" style="edgeStyle=none;html=1;exitX=1;exitY=0.5;exitDx=0;exitDy=0;entryX=0.5;entryY=0;entryDx=0;entryDy=0;" edge="1" parent="1" source="36" target="4">
                    <mxGeometry relative="1" as="geometry">
                        <mxPoint x="-387.75" y="-98.5" as="sourcePoint"/>
                        <mxPoint x="-307.75" y="-168.5" as="targetPoint"/>
                        <Array as="points">
                            <mxPoint x="-159.75" y="-298.5"/>
                        </Array>
                    </mxGeometry>
                </mxCell>
                <mxCell id="41" value="&lt;font style=&quot;font-size: 9px;&quot;&gt;no&lt;/font&gt;" style="text;html=1;strokeColor=none;fillColor=none;align=center;verticalAlign=middle;whiteSpace=wrap;rounded=0;fontSize=16;" vertex="1" parent="1">
                    <mxGeometry x="1666.9100000000003" y="2226" width="60" height="30" as="geometry"/>
                </mxCell>
                <mxCell id="42" value="&lt;font style=&quot;font-size: 9px;&quot;&gt;yes&lt;/font&gt;" style="text;html=1;strokeColor=none;fillColor=none;align=center;verticalAlign=middle;whiteSpace=wrap;rounded=0;fontSize=16;" vertex="1" parent="1">
                    <mxGeometry x="1706.91" y="2280.5" width="60" height="30" as="geometry"/>
                </mxCell>
                <mxCell id="43" value="&lt;font style=&quot;font-size: 9px;&quot;&gt;yes&lt;/font&gt;" style="text;html=1;strokeColor=none;fillColor=none;align=center;verticalAlign=middle;whiteSpace=wrap;rounded=0;fontSize=16;" vertex="1" parent="1">
                    <mxGeometry x="-360" y="-330" width="60" height="30" as="geometry"/>
                </mxCell>
                <mxCell id="44" value="&lt;font style=&quot;font-size: 9px;&quot;&gt;no&lt;/font&gt;" style="text;html=1;strokeColor=none;fillColor=none;align=center;verticalAlign=middle;whiteSpace=wrap;rounded=0;fontSize=16;" vertex="1" parent="1">
                    <mxGeometry x="-204.75" y="-128.5" width="60" height="30" as="geometry"/>
                </mxCell>
                <mxCell id="45" value="&lt;font style=&quot;font-size: 9px;&quot;&gt;yes&lt;/font&gt;" style="text;html=1;strokeColor=none;fillColor=none;align=center;verticalAlign=middle;whiteSpace=wrap;rounded=0;fontSize=16;" vertex="1" parent="1">
                    <mxGeometry x="-130" y="-198.5" width="74" height="30" as="geometry"/>
                </mxCell>
                <mxCell id="46" value="&lt;font style=&quot;font-size: 9px;&quot;&gt;yes&lt;/font&gt;" style="text;html=1;strokeColor=none;fillColor=none;align=center;verticalAlign=middle;whiteSpace=wrap;rounded=0;fontSize=16;" vertex="1" parent="1">
                    <mxGeometry x="225" y="29.5" width="60" height="30" as="geometry"/>
                </mxCell>
                <mxCell id="47" value="&lt;span style=&quot;font-size: 9px;&quot;&gt;no&lt;/span&gt;" style="text;html=1;strokeColor=none;fillColor=none;align=center;verticalAlign=middle;whiteSpace=wrap;rounded=0;fontSize=16;" vertex="1" parent="1">
                    <mxGeometry x="423" y="180.5" width="60" height="30" as="geometry"/>
                </mxCell>
                <mxCell id="48" value="&lt;font style=&quot;font-size: 9px;&quot;&gt;yes&lt;/font&gt;" style="text;html=1;strokeColor=none;fillColor=none;align=center;verticalAlign=middle;whiteSpace=wrap;rounded=0;fontSize=16;" vertex="1" parent="1">
                    <mxGeometry x="483" y="115" width="60" height="30" as="geometry"/>
                </mxCell>
                <mxCell id="49" style="edgeStyle=none;html=1;exitX=1;exitY=0.5;exitDx=0;exitDy=0;entryX=0.296;entryY=0.797;entryDx=0;entryDy=0;entryPerimeter=0;" edge="1" parent="1" source="50" target="144">
                    <mxGeometry relative="1" as="geometry">
                        <mxPoint x="-0.37999999999999545" y="140.5" as="targetPoint"/>
                        <Array as="points">
                            <mxPoint x="-13" y="80"/>
                        </Array>
                    </mxGeometry>
                </mxCell>
                <mxCell id="50" value="ask which databases will be converted and any set times" style="whiteSpace=wrap;html=1;rounded=0;" vertex="1" parent="1">
                    <mxGeometry x="-225.75" y="51.5" width="130" height="60" as="geometry"/>
                </mxCell>
                <mxCell id="51" style="edgeStyle=none;html=1;exitX=0.5;exitY=1;exitDx=0;exitDy=0;entryX=1;entryY=0.5;entryDx=0;entryDy=0;startArrow=none;" edge="1" parent="1" source="98" target="56">
                    <mxGeometry relative="1" as="geometry">
                        <mxPoint x="665.56" y="973.5" as="targetPoint"/>
                        <mxPoint x="849.56" y="933.5" as="sourcePoint"/>
                        <Array as="points">
                            <mxPoint x="914" y="973.5"/>
                            <mxPoint x="914" y="983.5"/>
                        </Array>
                    </mxGeometry>
                </mxCell>
                <mxCell id="52" style="edgeStyle=none;html=1;exitX=1;exitY=0.5;exitDx=0;exitDy=0;entryX=0.5;entryY=0;entryDx=0;entryDy=0;" edge="1" parent="1" source="53" target="90">
                    <mxGeometry relative="1" as="geometry">
                        <Array as="points">
                            <mxPoint x="1010" y="623.5"/>
                        </Array>
                    </mxGeometry>
                </mxCell>
                <mxCell id="53" value="are any constraints defined?" style="rhombus;whiteSpace=wrap;html=1;rounded=0;fillColor=#d5e8d4;strokeColor=#82b366;" vertex="1" parent="1">
                    <mxGeometry x="874.12" y="583.5" width="80" height="80" as="geometry"/>
                </mxCell>
                <mxCell id="54" value="" style="edgeStyle=none;html=1;fontSize=8;" edge="1" parent="1" source="56" target="58">
                    <mxGeometry relative="1" as="geometry"/>
                </mxCell>
                <mxCell id="55" style="edgeStyle=none;html=1;exitX=0;exitY=0.5;exitDx=0;exitDy=0;entryX=1;entryY=0.5;entryDx=0;entryDy=0;fontSize=10;" edge="1" parent="1" source="56" target="61">
                    <mxGeometry relative="1" as="geometry"/>
                </mxCell>
                <mxCell id="56" value="is time essential?" style="rhombus;whiteSpace=wrap;html=1;fillColor=#d5e8d4;strokeColor=#82b366;" vertex="1" parent="1">
                    <mxGeometry x="758" y="943.5" width="80" height="80" as="geometry"/>
                </mxCell>
                <mxCell id="57" style="edgeStyle=none;html=1;exitX=0;exitY=0;exitDx=0;exitDy=0;entryX=1;entryY=1;entryDx=0;entryDy=0;fontSize=10;" edge="1" parent="1" source="58" target="61">
                    <mxGeometry relative="1" as="geometry"/>
                </mxCell>
                <mxCell id="58" value="provide time limit for business" style="whiteSpace=wrap;html=1;" vertex="1" parent="1">
                    <mxGeometry x="738" y="1078.5" width="120" height="60" as="geometry"/>
                </mxCell>
                <mxCell id="59" value="" style="edgeStyle=none;html=1;fontSize=8;" edge="1" parent="1" source="61" target="63">
                    <mxGeometry relative="1" as="geometry"/>
                </mxCell>
                <mxCell id="60" style="edgeStyle=none;html=1;exitX=0;exitY=0.5;exitDx=0;exitDy=0;entryX=1;entryY=0.5;entryDx=0;entryDy=0;fontSize=10;" edge="1" parent="1" source="61" target="69">
                    <mxGeometry relative="1" as="geometry">
                        <mxPoint x="548" y="1083.5" as="targetPoint"/>
                    </mxGeometry>
                </mxCell>
                <mxCell id="61" value="&lt;font style=&quot;font-size: 10px;&quot;&gt;does budget matter?&lt;/font&gt;" style="rhombus;whiteSpace=wrap;html=1;fillColor=#d5e8d4;strokeColor=#82b366;" vertex="1" parent="1">
                    <mxGeometry x="610" y="943.5" width="80" height="80" as="geometry"/>
                </mxCell>
                <mxCell id="62" style="edgeStyle=none;html=1;exitX=0;exitY=0;exitDx=0;exitDy=0;entryX=1;entryY=1;entryDx=0;entryDy=0;fontSize=10;" edge="1" parent="1" source="63" target="69">
                    <mxGeometry relative="1" as="geometry"/>
                </mxCell>
                <mxCell id="63" value="identify budget costs for data migration" style="whiteSpace=wrap;html=1;" vertex="1" parent="1">
                    <mxGeometry x="590" y="1078.5" width="120" height="60" as="geometry"/>
                </mxCell>
                <mxCell id="64" value="&lt;font style=&quot;font-size: 9px;&quot;&gt;no&lt;/font&gt;" style="text;html=1;strokeColor=none;fillColor=none;align=center;verticalAlign=middle;whiteSpace=wrap;rounded=0;fontSize=16;" vertex="1" parent="1">
                    <mxGeometry x="729" y="975.5" width="60" height="30" as="geometry"/>
                </mxCell>
                <mxCell id="65" value="&lt;font style=&quot;font-size: 9px;&quot;&gt;yes&lt;/font&gt;" style="text;html=1;strokeColor=none;fillColor=none;align=center;verticalAlign=middle;whiteSpace=wrap;rounded=0;fontSize=16;" vertex="1" parent="1">
                    <mxGeometry x="758" y="1005.5" width="60" height="30" as="geometry"/>
                </mxCell>
                <mxCell id="66" value="&lt;font style=&quot;font-size: 9px;&quot;&gt;yes&lt;/font&gt;" style="text;html=1;strokeColor=none;fillColor=none;align=center;verticalAlign=middle;whiteSpace=wrap;rounded=0;fontSize=16;" vertex="1" parent="1">
                    <mxGeometry x="610" y="1003.5" width="60" height="30" as="geometry"/>
                </mxCell>
                <mxCell id="67" value="" style="edgeStyle=none;html=1;fontSize=10;" edge="1" parent="1" source="69" target="71">
                    <mxGeometry relative="1" as="geometry"/>
                </mxCell>
                <mxCell id="68" value="" style="edgeStyle=none;html=1;fontSize=10;" edge="1" parent="1" source="69" target="75">
                    <mxGeometry relative="1" as="geometry"/>
                </mxCell>
                <mxCell id="69" value="&lt;span style=&quot;font-size: 10px;&quot;&gt;is quality ensured?&lt;/span&gt;" style="rhombus;whiteSpace=wrap;html=1;fillColor=#d5e8d4;strokeColor=#82b366;" vertex="1" parent="1">
                    <mxGeometry x="447" y="943.5" width="80" height="80" as="geometry"/>
                </mxCell>
                <mxCell id="70" style="edgeStyle=none;html=1;exitX=0;exitY=0;exitDx=0;exitDy=0;entryX=1;entryY=1;entryDx=0;entryDy=0;fontSize=10;" edge="1" parent="1" source="71" target="75">
                    <mxGeometry relative="1" as="geometry"/>
                </mxCell>
                <mxCell id="71" value="take the time to understand data migration and use formative assessment strategies for feedback from business" style="whiteSpace=wrap;html=1;" vertex="1" parent="1">
                    <mxGeometry x="415.5" y="1078.5" width="143" height="78" as="geometry"/>
                </mxCell>
                <mxCell id="72" value="&lt;font style=&quot;font-size: 9px;&quot;&gt;no&lt;/font&gt;" style="text;html=1;strokeColor=none;fillColor=none;align=center;verticalAlign=middle;whiteSpace=wrap;rounded=0;fontSize=16;" vertex="1" parent="1">
                    <mxGeometry x="576" y="973.5" width="60" height="30" as="geometry"/>
                </mxCell>
                <mxCell id="73" style="edgeStyle=none;html=1;exitX=0.5;exitY=1;exitDx=0;exitDy=0;entryX=0.5;entryY=0;entryDx=0;entryDy=0;fontSize=10;" edge="1" parent="1" source="75" target="77">
                    <mxGeometry relative="1" as="geometry"/>
                </mxCell>
                <mxCell id="74" style="edgeStyle=none;html=1;exitX=0;exitY=0.5;exitDx=0;exitDy=0;entryX=0;entryY=0.5;entryDx=0;entryDy=0;" edge="1" parent="1" source="75" target="90">
                    <mxGeometry relative="1" as="geometry">
                        <Array as="points">
                            <mxPoint x="200" y="984"/>
                            <mxPoint x="200" y="1195"/>
                        </Array>
                    </mxGeometry>
                </mxCell>
                <mxCell id="75" value="&lt;span style=&quot;font-size: 10px;&quot;&gt;are resources identified?&lt;/span&gt;" style="rhombus;whiteSpace=wrap;html=1;fillColor=#d5e8d4;strokeColor=#82b366;" vertex="1" parent="1">
                    <mxGeometry x="271.5" y="943.5" width="80" height="80" as="geometry"/>
                </mxCell>
                <mxCell id="76" style="edgeStyle=none;html=1;exitX=0.5;exitY=1;exitDx=0;exitDy=0;fontSize=10;entryX=0;entryY=0.5;entryDx=0;entryDy=0;" edge="1" parent="1" source="77" target="90">
                    <mxGeometry relative="1" as="geometry">
                        <Array as="points">
                            <mxPoint x="310" y="1195.5"/>
                        </Array>
                        <mxPoint x="782.56" y="1251.5" as="targetPoint"/>
                    </mxGeometry>
                </mxCell>
                <mxCell id="77" value="request for NZ Bank to discuss resource requirements to migrate the databases&amp;nbsp;" style="whiteSpace=wrap;html=1;" vertex="1" parent="1">
                    <mxGeometry x="240" y="1078.5" width="143" height="78" as="geometry"/>
                </mxCell>
                <mxCell id="78" value="" style="edgeStyle=none;html=1;fontSize=8;startArrow=none;entryX=0.85;entryY=0.418;entryDx=0;entryDy=0;entryPerimeter=0;" edge="1" parent="1" source="90" target="81">
                    <mxGeometry relative="1" as="geometry">
                        <mxPoint x="912.6790327580861" y="1278.4469360338949" as="targetPoint"/>
                    </mxGeometry>
                </mxCell>
                <mxCell id="79" value="" style="edgeStyle=none;html=1;fontSize=8;" edge="1" parent="1" source="81" target="83">
                    <mxGeometry relative="1" as="geometry"/>
                </mxCell>
                <mxCell id="80" style="edgeStyle=none;html=1;exitX=0.5;exitY=1;exitDx=0;exitDy=0;entryX=0;entryY=0.5;entryDx=0;entryDy=0;" edge="1" parent="1" source="81" target="212">
                    <mxGeometry relative="1" as="geometry">
                        <Array as="points">
                            <mxPoint x="865" y="1373"/>
                        </Array>
                        <mxPoint x="885" y="1358" as="sourcePoint"/>
                    </mxGeometry>
                </mxCell>
                <mxCell id="81" value="requirements made?" style="rhombus;whiteSpace=wrap;html=1;fillColor=#d5e8d4;strokeColor=#82b366;" vertex="1" parent="1">
                    <mxGeometry x="815" y="1244" width="100" height="110" as="geometry"/>
                </mxCell>
                <mxCell id="82" value="" style="edgeStyle=none;html=1;fontSize=8;" edge="1" parent="1" source="83" target="86">
                    <mxGeometry relative="1" as="geometry"/>
                </mxCell>
                <mxCell id="83" value="list down requirements on how the process should commence" style="whiteSpace=wrap;html=1;" vertex="1" parent="1">
                    <mxGeometry x="654" y="1271" width="120" height="60" as="geometry"/>
                </mxCell>
                <mxCell id="84" value="" style="edgeStyle=none;html=1;fontSize=8;" edge="1" parent="1" source="86" target="88">
                    <mxGeometry relative="1" as="geometry"/>
                </mxCell>
                <mxCell id="85" style="edgeStyle=none;html=1;exitX=0.5;exitY=1;exitDx=0;exitDy=0;entryX=0.5;entryY=0;entryDx=0;entryDy=0;" edge="1" parent="1" source="86" target="116">
                    <mxGeometry relative="1" as="geometry"/>
                </mxCell>
                <mxCell id="86" value="flexibility required?" style="rhombus;whiteSpace=wrap;html=1;fillColor=#d5e8d4;strokeColor=#82b366;" vertex="1" parent="1">
                    <mxGeometry x="674" y="1356" width="80" height="80" as="geometry"/>
                </mxCell>
                <mxCell id="87" style="edgeStyle=none;html=1;exitX=0.989;exitY=0.789;exitDx=0;exitDy=0;entryX=1;entryY=0.25;entryDx=0;entryDy=0;exitPerimeter=0;" edge="1" parent="1" source="88" target="118">
                    <mxGeometry relative="1" as="geometry">
                        <Array as="points">
                            <mxPoint x="639" y="1416.5"/>
                            <mxPoint x="649" y="1417"/>
                            <mxPoint x="649" y="1481.5"/>
                        </Array>
                        <mxPoint x="674" y="1496" as="targetPoint"/>
                    </mxGeometry>
                </mxCell>
                <mxCell id="88" value="Make sure that the NoSQL approach has been acknowledged (has a flexible, adaptable scale)" style="whiteSpace=wrap;html=1;" vertex="1" parent="1">
                    <mxGeometry x="432" y="1354" width="120" height="80" as="geometry"/>
                </mxCell>
                <mxCell id="90" value="are all database structures and information consistent?" style="rhombus;whiteSpace=wrap;html=1;fillColor=#d5e8d4;strokeColor=#82b366;" vertex="1" parent="1">
                    <mxGeometry x="946.75" y="1125" width="120" height="140" as="geometry"/>
                </mxCell>
                <mxCell id="91" value="&lt;font style=&quot;font-size: 9px;&quot;&gt;yes&lt;/font&gt;" style="text;html=1;strokeColor=none;fillColor=none;align=center;verticalAlign=middle;whiteSpace=wrap;rounded=0;fontSize=16;" vertex="1" parent="1">
                    <mxGeometry x="1095" y="1394" width="60" height="30" as="geometry"/>
                </mxCell>
                <mxCell id="92" style="edgeStyle=none;html=1;exitX=0.5;exitY=1;exitDx=0;exitDy=0;entryX=0.5;entryY=0;entryDx=0;entryDy=0;" edge="1" parent="1" source="93" target="30">
                    <mxGeometry relative="1" as="geometry"/>
                </mxCell>
                <mxCell id="93" value="determine the transformation and rules" style="whiteSpace=wrap;html=1;" vertex="1" parent="1">
                    <mxGeometry x="1519.46" y="2207.5" width="120" height="60" as="geometry"/>
                </mxCell>
                <mxCell id="94" value="&lt;font style=&quot;font-size: 9px;&quot;&gt;no&lt;/font&gt;" style="text;html=1;strokeColor=none;fillColor=none;align=center;verticalAlign=middle;whiteSpace=wrap;rounded=0;fontSize=16;" vertex="1" parent="1">
                    <mxGeometry x="772" y="1274" width="60" height="30" as="geometry"/>
                </mxCell>
                <mxCell id="95" value="&lt;font style=&quot;font-size: 9px;&quot;&gt;no&lt;/font&gt;" style="text;html=1;strokeColor=none;fillColor=none;align=center;verticalAlign=middle;whiteSpace=wrap;rounded=0;fontSize=16;" vertex="1" parent="1">
                    <mxGeometry x="674" y="1420" width="60" height="30" as="geometry"/>
                </mxCell>
                <mxCell id="96" value="&lt;font style=&quot;font-size: 9px;&quot;&gt;yes&lt;/font&gt;" style="text;html=1;strokeColor=none;fillColor=none;align=center;verticalAlign=middle;whiteSpace=wrap;rounded=0;fontSize=16;" vertex="1" parent="1">
                    <mxGeometry x="633" y="1373" width="60" height="30" as="geometry"/>
                </mxCell>
                <mxCell id="97" value="" style="edgeStyle=none;html=1;exitX=0.5;exitY=1;exitDx=0;exitDy=0;endArrow=none;startArrow=none;" edge="1" parent="1" source="111" target="98">
                    <mxGeometry relative="1" as="geometry">
                        <mxPoint x="808" y="973.5" as="targetPoint"/>
                        <mxPoint x="994.1199999999999" y="653.5" as="sourcePoint"/>
                        <Array as="points"/>
                    </mxGeometry>
                </mxCell>
                <mxCell id="98" value="consult with NZ Bank for futher information" style="whiteSpace=wrap;html=1;" vertex="1" parent="1">
                    <mxGeometry x="854.1200000000001" y="873.5" width="120" height="60" as="geometry"/>
                </mxCell>
                <mxCell id="99" style="edgeStyle=none;html=1;exitX=0.5;exitY=1;exitDx=0;exitDy=0;entryX=0.5;entryY=0;entryDx=0;entryDy=0;" edge="1" parent="1" source="107" target="53">
                    <mxGeometry relative="1" as="geometry">
                        <mxPoint x="990" y="210" as="sourcePoint"/>
                        <Array as="points">
                            <mxPoint x="950" y="230"/>
                            <mxPoint x="914" y="230"/>
                        </Array>
                    </mxGeometry>
                </mxCell>
                <mxCell id="100" value="" style="edgeStyle=none;html=1;" edge="1" parent="1" source="102">
                    <mxGeometry relative="1" as="geometry">
                        <mxPoint x="1132.3549999999996" y="1670.749999999999" as="targetPoint"/>
                    </mxGeometry>
                </mxCell>
                <mxCell id="101" value="" style="edgeStyle=none;html=1;" edge="1" parent="1" source="102">
                    <mxGeometry relative="1" as="geometry">
                        <mxPoint x="1006.7928571428567" y="1780.75" as="targetPoint"/>
                    </mxGeometry>
                </mxCell>
                <mxCell id="102" value="are there any filtering data conditions for data extraction?" style="rhombus;whiteSpace=wrap;html=1;fillColor=#d5e8d4;strokeColor=#82b366;" vertex="1" parent="1">
                    <mxGeometry x="954" y="1605.75" width="105.57" height="130" as="geometry"/>
                </mxCell>
                <mxCell id="103" style="edgeStyle=none;html=1;exitX=0.5;exitY=1;exitDx=0;exitDy=0;entryX=0.5;entryY=0;entryDx=0;entryDy=0;" edge="1" parent="1" source="104" target="102">
                    <mxGeometry relative="1" as="geometry">
                        <mxPoint x="1007.02" y="1621" as="targetPoint"/>
                    </mxGeometry>
                </mxCell>
                <mxCell id="104" value="extracting data" style="ellipse;whiteSpace=wrap;html=1;aspect=fixed;fillColor=#dae8fc;strokeColor=#6c8ebf;" vertex="1" parent="1">
                    <mxGeometry x="966.75" y="1503.5" width="80" height="80" as="geometry"/>
                </mxCell>
                <mxCell id="105" value="" style="edgeStyle=none;html=1;fontSize=16;exitX=0.5;exitY=1;exitDx=0;exitDy=0;endArrow=none;" edge="1" parent="1" source="33" target="106">
                    <mxGeometry relative="1" as="geometry">
                        <mxPoint x="-378.75" y="-508.5" as="sourcePoint"/>
                        <mxPoint x="-378.75" y="-353.5" as="targetPoint"/>
                    </mxGeometry>
                </mxCell>
                <mxCell id="106" value="gathering information about scenario" style="ellipse;whiteSpace=wrap;html=1;aspect=fixed;fillColor=#dae8fc;strokeColor=#6c8ebf;" vertex="1" parent="1">
                    <mxGeometry x="-420" y="-488.5" width="80" height="80" as="geometry"/>
                </mxCell>
                <mxCell id="107" value="creating project scope" style="ellipse;whiteSpace=wrap;html=1;aspect=fixed;fillColor=#dae8fc;strokeColor=#6c8ebf;" vertex="1" parent="1">
                    <mxGeometry x="910" y="102" width="80" height="80" as="geometry"/>
                </mxCell>
                <mxCell id="108" value="&lt;span style=&quot;font-size: 9px;&quot;&gt;no&lt;/span&gt;" style="text;html=1;strokeColor=none;fillColor=none;align=center;verticalAlign=middle;whiteSpace=wrap;rounded=0;fontSize=16;" vertex="1" parent="1">
                    <mxGeometry x="874.12" y="643.5" width="60" height="30" as="geometry"/>
                </mxCell>
                <mxCell id="109" value="" style="edgeStyle=none;html=1;exitX=0.5;exitY=1;exitDx=0;exitDy=0;endArrow=none;" edge="1" parent="1" source="53" target="111">
                    <mxGeometry relative="1" as="geometry">
                        <mxPoint x="914.1200000000001" y="713.5" as="targetPoint"/>
                        <mxPoint x="914.1199999999999" y="503.5" as="sourcePoint"/>
                        <Array as="points"/>
                    </mxGeometry>
                </mxCell>
                <mxCell id="110" style="edgeStyle=none;html=1;exitX=1;exitY=0.5;exitDx=0;exitDy=0;entryX=0.5;entryY=0;entryDx=0;entryDy=0;" edge="1" parent="1" source="111" target="90">
                    <mxGeometry relative="1" as="geometry">
                        <mxPoint x="1010" y="563.8333333333335" as="targetPoint"/>
                        <Array as="points">
                            <mxPoint x="1010" y="723.5"/>
                        </Array>
                    </mxGeometry>
                </mxCell>
                <mxCell id="111" value="is it necessary?" style="rhombus;whiteSpace=wrap;html=1;rounded=0;fillColor=#d5e8d4;strokeColor=#82b366;" vertex="1" parent="1">
                    <mxGeometry x="875" y="683.5" width="80" height="80" as="geometry"/>
                </mxCell>
                <mxCell id="112" value="&lt;span style=&quot;font-size: 9px;&quot;&gt;no&lt;/span&gt;" style="text;html=1;strokeColor=none;fillColor=none;align=center;verticalAlign=middle;whiteSpace=wrap;rounded=0;fontSize=16;" vertex="1" parent="1">
                    <mxGeometry x="930" y="710.5" width="60" height="30" as="geometry"/>
                </mxCell>
                <mxCell id="113" value="&lt;span style=&quot;font-size: 9px;&quot;&gt;yes&lt;/span&gt;" style="text;html=1;strokeColor=none;fillColor=none;align=center;verticalAlign=middle;whiteSpace=wrap;rounded=0;fontSize=16;" vertex="1" parent="1">
                    <mxGeometry x="932" y="597.5" width="60" height="30" as="geometry"/>
                </mxCell>
                <mxCell id="114" value="&lt;span style=&quot;font-size: 9px;&quot;&gt;yes&lt;/span&gt;" style="text;html=1;strokeColor=none;fillColor=none;align=center;verticalAlign=middle;whiteSpace=wrap;rounded=0;fontSize=16;" vertex="1" parent="1">
                    <mxGeometry x="874.12" y="743.5" width="60" height="30" as="geometry"/>
                </mxCell>
                <mxCell id="115" value="" style="edgeStyle=none;html=1;fontSize=8;" edge="1" parent="1" source="116" target="117">
                    <mxGeometry relative="1" as="geometry"/>
                </mxCell>
                <mxCell id="116" value="performance required?" style="rhombus;whiteSpace=wrap;html=1;fillColor=#d5e8d4;strokeColor=#82b366;" vertex="1" parent="1">
                    <mxGeometry x="674" y="1456.5" width="80" height="80" as="geometry"/>
                </mxCell>
                <mxCell id="117" value="Ensure that the performance expectations are known and met during the process and result" style="whiteSpace=wrap;html=1;" vertex="1" parent="1">
                    <mxGeometry x="432" y="1454.5" width="120" height="80" as="geometry"/>
                </mxCell>
                <mxCell id="118" value="&lt;font style=&quot;font-size: 9px;&quot;&gt;yes&lt;/font&gt;" style="text;html=1;strokeColor=none;fillColor=none;align=center;verticalAlign=middle;whiteSpace=wrap;rounded=0;fontSize=16;" vertex="1" parent="1">
                    <mxGeometry x="633" y="1473.5" width="60" height="30" as="geometry"/>
                </mxCell>
                <mxCell id="119" value="" style="edgeStyle=none;html=1;fontSize=8;" edge="1" parent="1" target="122">
                    <mxGeometry relative="1" as="geometry">
                        <mxPoint x="713.9999999999991" y="1531.499999999999" as="sourcePoint"/>
                    </mxGeometry>
                </mxCell>
                <mxCell id="120" value="" style="edgeStyle=none;html=1;fontSize=8;" edge="1" parent="1" source="122" target="123">
                    <mxGeometry relative="1" as="geometry"/>
                </mxCell>
                <mxCell id="121" value="" style="edgeStyle=none;html=1;fontSize=8;entryX=0.5;entryY=0;entryDx=0;entryDy=0;" edge="1" parent="1" source="122" target="185">
                    <mxGeometry relative="1" as="geometry">
                        <mxPoint x="714" y="1656.5" as="targetPoint"/>
                    </mxGeometry>
                </mxCell>
                <mxCell id="122" value="security required?" style="rhombus;whiteSpace=wrap;html=1;fillColor=#d5e8d4;strokeColor=#82b366;" vertex="1" parent="1">
                    <mxGeometry x="674" y="1556.5" width="80" height="80" as="geometry"/>
                </mxCell>
                <mxCell id="123" value="Make sure that security measures are met, ensuring that privacy attributes are logged within the databases etc." style="whiteSpace=wrap;html=1;" vertex="1" parent="1">
                    <mxGeometry x="432" y="1554.5" width="120" height="80" as="geometry"/>
                </mxCell>
                <mxCell id="124" value="&lt;font style=&quot;font-size: 9px;&quot;&gt;no&lt;/font&gt;" style="text;html=1;strokeColor=none;fillColor=none;align=center;verticalAlign=middle;whiteSpace=wrap;rounded=0;fontSize=16;" vertex="1" parent="1">
                    <mxGeometry x="674" y="1616.5" width="60" height="30" as="geometry"/>
                </mxCell>
                <mxCell id="125" value="&lt;font style=&quot;font-size: 9px;&quot;&gt;yes&lt;/font&gt;" style="text;html=1;strokeColor=none;fillColor=none;align=center;verticalAlign=middle;whiteSpace=wrap;rounded=0;fontSize=16;" vertex="1" parent="1">
                    <mxGeometry x="633" y="1573.5" width="60" height="30" as="geometry"/>
                </mxCell>
                <mxCell id="126" style="edgeStyle=none;html=1;exitX=1.001;exitY=0.708;exitDx=0;exitDy=0;entryX=1;entryY=0.25;entryDx=0;entryDy=0;exitPerimeter=0;" edge="1" parent="1" source="117">
                    <mxGeometry relative="1" as="geometry">
                        <Array as="points">
                            <mxPoint x="640" y="1511.5"/>
                            <mxPoint x="650" y="1511.5"/>
                            <mxPoint x="650" y="1576.5"/>
                        </Array>
                        <mxPoint x="693.9999999999991" y="1576" as="targetPoint"/>
                        <mxPoint x="615" y="1511" as="sourcePoint"/>
                    </mxGeometry>
                </mxCell>
                <mxCell id="127" style="edgeStyle=none;html=1;exitX=1;exitY=0.75;exitDx=0;exitDy=0;entryX=0;entryY=0.5;entryDx=0;entryDy=0;" edge="1" parent="1" source="128" target="212">
                    <mxGeometry relative="1" as="geometry">
                        <mxPoint x="753" y="1685.5" as="sourcePoint"/>
                        <mxPoint x="946.75" y="1587.5" as="targetPoint"/>
                        <Array as="points">
                            <mxPoint x="660" y="1913"/>
                            <mxPoint x="660" y="1990"/>
                            <mxPoint x="860" y="1990"/>
                            <mxPoint x="870" y="1373"/>
                        </Array>
                    </mxGeometry>
                </mxCell>
                <mxCell id="128" value="if theres any other requirements, make sure to state and acknowledge them during the process" style="whiteSpace=wrap;html=1;" vertex="1" parent="1">
                    <mxGeometry x="423" y="1868" width="146" height="60" as="geometry"/>
                </mxCell>
                <mxCell id="129" style="edgeStyle=none;html=1;exitX=1;exitY=0.5;exitDx=0;exitDy=0;entryX=0;entryY=0.5;entryDx=0;entryDy=0;" edge="1" parent="1" target="133">
                    <mxGeometry relative="1" as="geometry">
                        <Array as="points">
                            <mxPoint x="1093.7900000000002" y="1810.75"/>
                            <mxPoint x="1093.7900000000002" y="1670.75"/>
                        </Array>
                        <mxPoint x="1066.795" y="1810.75" as="sourcePoint"/>
                    </mxGeometry>
                </mxCell>
                <mxCell id="130" value="specify relevant data and filter it through extraction process" style="whiteSpace=wrap;html=1;" vertex="1" parent="1">
                    <mxGeometry x="946.725" y="1781.75" width="120" height="60" as="geometry"/>
                </mxCell>
                <mxCell id="131" value="" style="edgeStyle=none;html=1;" edge="1" parent="1" source="133" target="135">
                    <mxGeometry relative="1" as="geometry"/>
                </mxCell>
                <mxCell id="132" value="" style="edgeStyle=none;html=1;" edge="1" parent="1" source="133" target="137">
                    <mxGeometry relative="1" as="geometry"/>
                </mxCell>
                <mxCell id="133" value="are requirements necessary in this application?" style="rhombus;whiteSpace=wrap;html=1;fillColor=#d5e8d4;strokeColor=#82b366;" vertex="1" parent="1">
                    <mxGeometry x="1133.7900000000002" y="1605.75" width="105.57" height="130" as="geometry"/>
                </mxCell>
                <mxCell id="134" style="edgeStyle=none;html=1;exitX=1;exitY=0.5;exitDx=0;exitDy=0;entryX=0.001;entryY=0.481;entryDx=0;entryDy=0;entryPerimeter=0;" edge="1" parent="1" source="135" target="137">
                    <mxGeometry relative="1" as="geometry">
                        <Array as="points">
                            <mxPoint x="1260.0500000000002" y="1811.75"/>
                            <mxPoint x="1260.0500000000002" y="1671.75"/>
                        </Array>
                    </mxGeometry>
                </mxCell>
                <mxCell id="135" value="refer back to requirements list and apply accordingly" style="whiteSpace=wrap;html=1;" vertex="1" parent="1">
                    <mxGeometry x="1126.5750000000003" y="1780.75" width="120" height="60" as="geometry"/>
                </mxCell>
                <mxCell id="136" style="edgeStyle=none;html=1;exitX=0.5;exitY=1;exitDx=0;exitDy=0;entryX=0.5;entryY=0;entryDx=0;entryDy=0;" edge="1" parent="1" source="137" target="232">
                    <mxGeometry relative="1" as="geometry"/>
                </mxCell>
                <mxCell id="137" value="connect to SQL server and extract data needed" style="whiteSpace=wrap;html=1;" vertex="1" parent="1">
                    <mxGeometry x="1452.9550000000004" y="1642.75" width="120" height="60" as="geometry"/>
                </mxCell>
                <mxCell id="138" style="edgeStyle=none;html=1;exitX=0.5;exitY=1;exitDx=0;exitDy=0;entryX=0.5;entryY=0;entryDx=0;entryDy=0;" edge="1" parent="1" source="139" target="27">
                    <mxGeometry relative="1" as="geometry"/>
                </mxCell>
                <mxCell id="139" value="mapping data" style="ellipse;whiteSpace=wrap;html=1;aspect=fixed;fillColor=#dae8fc;strokeColor=#6c8ebf;" vertex="1" parent="1">
                    <mxGeometry x="1715.91" y="1979.5" width="80" height="80" as="geometry"/>
                </mxCell>
                <mxCell id="142" value="" style="edgeStyle=none;html=1;" edge="1" parent="1" source="144" target="146">
                    <mxGeometry relative="1" as="geometry"/>
                </mxCell>
                <mxCell id="143" value="" style="edgeStyle=none;html=1;" edge="1" parent="1" source="144" target="149">
                    <mxGeometry relative="1" as="geometry"/>
                </mxCell>
                <mxCell id="144" value="&lt;font style=&quot;font-size: 10px;&quot;&gt;are there any tables that need to be seperated due to particular/special characteristics/requirements?&lt;/font&gt;" style="rhombus;whiteSpace=wrap;html=1;rounded=0;fillColor=#d5e8d4;strokeColor=#82b366;" vertex="1" parent="1">
                    <mxGeometry x="-50.879999999999995" y="-98.5" width="127" height="145" as="geometry"/>
                </mxCell>
                <mxCell id="145" style="edgeStyle=none;html=1;exitX=1;exitY=0.5;exitDx=0;exitDy=0;entryX=0;entryY=0.5;entryDx=0;entryDy=0;" edge="1" parent="1" source="146" target="149">
                    <mxGeometry relative="1" as="geometry">
                        <Array as="points">
                            <mxPoint x="119.62" y="170.5"/>
                            <mxPoint x="119.62" y="-25.5"/>
                        </Array>
                    </mxGeometry>
                </mxCell>
                <mxCell id="146" value="identify specific tables and define different approach for the integration process" style="whiteSpace=wrap;html=1;rounded=0;" vertex="1" parent="1">
                    <mxGeometry x="-53.879999999999995" y="140.5" width="130" height="60" as="geometry"/>
                </mxCell>
                <mxCell id="147" value="" style="edgeStyle=none;html=1;" edge="1" parent="1" source="149" target="151">
                    <mxGeometry relative="1" as="geometry"/>
                </mxCell>
                <mxCell id="148" style="edgeStyle=none;html=1;exitX=1;exitY=0.5;exitDx=0;exitDy=0;entryX=0.5;entryY=0;entryDx=0;entryDy=0;" edge="1" parent="1" source="149" target="7">
                    <mxGeometry relative="1" as="geometry">
                        <Array as="points">
                            <mxPoint x="445" y="-25.5"/>
                        </Array>
                    </mxGeometry>
                </mxCell>
                <mxCell id="149" value="are there any limitations on how many sql database servers should be processed at a time?" style="rhombus;whiteSpace=wrap;html=1;rounded=0;fillColor=#d5e8d4;strokeColor=#82b366;" vertex="1" parent="1">
                    <mxGeometry x="179.62" y="-98.5" width="127" height="145" as="geometry"/>
                </mxCell>
                <mxCell id="150" style="edgeStyle=none;html=1;exitX=1;exitY=0.5;exitDx=0;exitDy=0;entryX=0;entryY=0.5;entryDx=0;entryDy=0;" edge="1" parent="1" source="151" target="7">
                    <mxGeometry relative="1" as="geometry"/>
                </mxCell>
                <mxCell id="151" value="identify the maximum number of tables to be processed at a time and define the concepts process" style="whiteSpace=wrap;html=1;rounded=0;" vertex="1" parent="1">
                    <mxGeometry x="183" y="101.5" width="118.5" height="79" as="geometry"/>
                </mxCell>
                <mxCell id="152" value="&lt;font style=&quot;font-size: 9px;&quot;&gt;yes&lt;/font&gt;" style="text;html=1;strokeColor=none;fillColor=none;align=center;verticalAlign=middle;whiteSpace=wrap;rounded=0;fontSize=16;" vertex="1" parent="1">
                    <mxGeometry x="-8" y="29.5" width="60" height="30" as="geometry"/>
                </mxCell>
                <mxCell id="153" value="&lt;font style=&quot;font-size: 9px;&quot;&gt;no&lt;/font&gt;" style="text;html=1;strokeColor=none;fillColor=none;align=center;verticalAlign=middle;whiteSpace=wrap;rounded=0;fontSize=16;" vertex="1" parent="1">
                    <mxGeometry x="76.12" y="-50" width="60" height="30" as="geometry"/>
                </mxCell>
                <mxCell id="154" value="&lt;font style=&quot;font-size: 9px;&quot;&gt;no&lt;/font&gt;" style="text;html=1;strokeColor=none;fillColor=none;align=center;verticalAlign=middle;whiteSpace=wrap;rounded=0;fontSize=16;" vertex="1" parent="1">
                    <mxGeometry x="285" y="-50" width="60" height="30" as="geometry"/>
                </mxCell>
                <mxCell id="155" style="edgeStyle=none;html=1;exitX=0;exitY=0.5;exitDx=0;exitDy=0;entryX=0;entryY=0.5;entryDx=0;entryDy=0;" edge="1" parent="1" source="156" target="23">
                    <mxGeometry relative="1" as="geometry">
                        <Array as="points">
                            <mxPoint x="110" y="344.5"/>
                            <mxPoint x="110" y="870.5"/>
                        </Array>
                    </mxGeometry>
                </mxCell>
                <mxCell id="156" value="utilize a key value structure" style="whiteSpace=wrap;html=1;rounded=0;" vertex="1" parent="1">
                    <mxGeometry x="179" y="314.5" width="120" height="60" as="geometry"/>
                </mxCell>
                <mxCell id="157" style="edgeStyle=none;html=1;exitX=0;exitY=0.5;exitDx=0;exitDy=0;entryX=0;entryY=0.5;entryDx=0;entryDy=0;" edge="1" parent="1" source="158" target="23">
                    <mxGeometry relative="1" as="geometry">
                        <mxPoint x="334" y="860.5" as="targetPoint"/>
                        <Array as="points">
                            <mxPoint x="110" y="457.5"/>
                            <mxPoint x="110" y="870.5"/>
                        </Array>
                    </mxGeometry>
                </mxCell>
                <mxCell id="158" value="utilize a key value structure" style="whiteSpace=wrap;html=1;rounded=0;" vertex="1" parent="1">
                    <mxGeometry x="181" y="427.5" width="120" height="60" as="geometry"/>
                </mxCell>
                <mxCell id="159" style="edgeStyle=none;html=1;exitX=0;exitY=0.5;exitDx=0;exitDy=0;entryX=0;entryY=0.5;entryDx=0;entryDy=0;" edge="1" parent="1" source="160" target="23">
                    <mxGeometry relative="1" as="geometry">
                        <Array as="points">
                            <mxPoint x="110" y="560.5"/>
                            <mxPoint x="110" y="870.5"/>
                        </Array>
                    </mxGeometry>
                </mxCell>
                <mxCell id="160" value="opt for a document database structure" style="whiteSpace=wrap;html=1;rounded=0;" vertex="1" parent="1">
                    <mxGeometry x="180" y="530.5" width="120" height="60" as="geometry"/>
                </mxCell>
                <mxCell id="161" style="edgeStyle=none;html=1;exitX=0;exitY=0.5;exitDx=0;exitDy=0;" edge="1" parent="1" source="163" target="165">
                    <mxGeometry relative="1" as="geometry"/>
                </mxCell>
                <mxCell id="162" style="edgeStyle=none;html=1;exitX=0.5;exitY=1;exitDx=0;exitDy=0;entryX=0.5;entryY=0;entryDx=0;entryDy=0;" edge="1" parent="1" source="163" target="168">
                    <mxGeometry relative="1" as="geometry"/>
                </mxCell>
                <mxCell id="163" value="would the data fit best with graph visualization?" style="rhombus;whiteSpace=wrap;html=1;rounded=0;fillColor=#d5e8d4;strokeColor=#82b366;" vertex="1" parent="1">
                    <mxGeometry x="400" y="630.08" width="80" height="80" as="geometry"/>
                </mxCell>
                <mxCell id="164" style="edgeStyle=none;html=1;exitX=0;exitY=0.5;exitDx=0;exitDy=0;entryX=0;entryY=0.5;entryDx=0;entryDy=0;" edge="1" parent="1" source="165" target="23">
                    <mxGeometry relative="1" as="geometry">
                        <Array as="points">
                            <mxPoint x="110" y="670.5"/>
                            <mxPoint x="110" y="870.5"/>
                        </Array>
                    </mxGeometry>
                </mxCell>
                <mxCell id="165" value="use a graph database structure" style="whiteSpace=wrap;html=1;rounded=0;" vertex="1" parent="1">
                    <mxGeometry x="180" y="640" width="120" height="60" as="geometry"/>
                </mxCell>
                <mxCell id="166" style="edgeStyle=none;html=1;exitX=0;exitY=0.5;exitDx=0;exitDy=0;entryX=1;entryY=0.5;entryDx=0;entryDy=0;" edge="1" parent="1" source="168" target="170">
                    <mxGeometry relative="1" as="geometry"/>
                </mxCell>
                <mxCell id="167" style="edgeStyle=none;html=1;exitX=0.5;exitY=1;exitDx=0;exitDy=0;entryX=0.5;entryY=0;entryDx=0;entryDy=0;" edge="1" parent="1" source="168" target="177">
                    <mxGeometry relative="1" as="geometry"/>
                </mxCell>
                <mxCell id="168" value="is there another unspecified database thats preferable?" style="rhombus;whiteSpace=wrap;html=1;rounded=0;fillColor=#d5e8d4;strokeColor=#82b366;" vertex="1" parent="1">
                    <mxGeometry x="399" y="740.08" width="84" height="80" as="geometry"/>
                </mxCell>
                <mxCell id="169" style="edgeStyle=none;html=1;exitX=0;exitY=0.5;exitDx=0;exitDy=0;entryX=0;entryY=0.5;entryDx=0;entryDy=0;" edge="1" parent="1" source="170" target="23">
                    <mxGeometry relative="1" as="geometry">
                        <Array as="points">
                            <mxPoint x="110" y="780.5"/>
                            <mxPoint x="110" y="870.5"/>
                        </Array>
                    </mxGeometry>
                </mxCell>
                <mxCell id="170" value="opt for that structure" style="whiteSpace=wrap;html=1;rounded=0;" vertex="1" parent="1">
                    <mxGeometry x="179" y="750" width="120" height="60" as="geometry"/>
                </mxCell>
                <mxCell id="171" value="&lt;font style=&quot;font-size: 9px;&quot;&gt;no&lt;/font&gt;" style="text;html=1;strokeColor=none;fillColor=none;align=center;verticalAlign=middle;whiteSpace=wrap;rounded=0;fontSize=16;" vertex="1" parent="1">
                    <mxGeometry x="929.54" y="1200" width="60" height="30" as="geometry"/>
                </mxCell>
                <mxCell id="172" value="&lt;span style=&quot;font-size: 9px;&quot;&gt;no&lt;/span&gt;" style="text;html=1;strokeColor=none;fillColor=none;align=center;verticalAlign=middle;whiteSpace=wrap;rounded=0;fontSize=16;" vertex="1" parent="1">
                    <mxGeometry x="400" y="374.5" width="60" height="30" as="geometry"/>
                </mxCell>
                <mxCell id="173" value="&lt;span style=&quot;font-size: 9px;&quot;&gt;no&lt;/span&gt;" style="text;html=1;strokeColor=none;fillColor=none;align=center;verticalAlign=middle;whiteSpace=wrap;rounded=0;fontSize=16;" vertex="1" parent="1">
                    <mxGeometry x="399" y="480" width="60" height="30" as="geometry"/>
                </mxCell>
                <mxCell id="174" value="&lt;span style=&quot;font-size: 9px;&quot;&gt;no&lt;/span&gt;" style="text;html=1;strokeColor=none;fillColor=none;align=center;verticalAlign=middle;whiteSpace=wrap;rounded=0;fontSize=16;" vertex="1" parent="1">
                    <mxGeometry x="399" y="583.5" width="60" height="30" as="geometry"/>
                </mxCell>
                <mxCell id="175" value="&lt;span style=&quot;font-size: 9px;&quot;&gt;no&lt;/span&gt;" style="text;html=1;strokeColor=none;fillColor=none;align=center;verticalAlign=middle;whiteSpace=wrap;rounded=0;fontSize=16;" vertex="1" parent="1">
                    <mxGeometry x="399" y="694" width="60" height="30" as="geometry"/>
                </mxCell>
                <mxCell id="176" style="edgeStyle=none;html=1;exitX=1;exitY=0.5;exitDx=0;exitDy=0;entryX=1;entryY=0.5;entryDx=0;entryDy=0;" edge="1" parent="1" source="177" target="12">
                    <mxGeometry relative="1" as="geometry">
                        <Array as="points">
                            <mxPoint x="540" y="870.5"/>
                            <mxPoint x="540" y="250.5"/>
                        </Array>
                    </mxGeometry>
                </mxCell>
                <mxCell id="177" value="if there isnt a decided NoSQL database, talk with NZBank" style="whiteSpace=wrap;html=1;rounded=0;" vertex="1" parent="1">
                    <mxGeometry x="380" y="840.08" width="120" height="60" as="geometry"/>
                </mxCell>
                <mxCell id="178" value="&lt;span style=&quot;font-size: 9px;&quot;&gt;no&lt;/span&gt;" style="text;html=1;strokeColor=none;fillColor=none;align=center;verticalAlign=middle;whiteSpace=wrap;rounded=0;fontSize=16;" vertex="1" parent="1">
                    <mxGeometry x="399" y="810" width="60" height="30" as="geometry"/>
                </mxCell>
                <mxCell id="179" value="&lt;span style=&quot;font-size: 9px;&quot;&gt;yes&lt;/span&gt;" style="text;html=1;strokeColor=none;fillColor=none;align=center;verticalAlign=middle;whiteSpace=wrap;rounded=0;fontSize=16;" vertex="1" parent="1">
                    <mxGeometry x="358.5" y="754" width="60" height="30" as="geometry"/>
                </mxCell>
                <mxCell id="180" value="&lt;span style=&quot;font-size: 9px;&quot;&gt;yes&lt;/span&gt;" style="text;html=1;strokeColor=none;fillColor=none;align=center;verticalAlign=middle;whiteSpace=wrap;rounded=0;fontSize=16;" vertex="1" parent="1">
                    <mxGeometry x="358.5" y="644" width="60" height="30" as="geometry"/>
                </mxCell>
                <mxCell id="181" value="&lt;span style=&quot;font-size: 9px;&quot;&gt;yes&lt;/span&gt;" style="text;html=1;strokeColor=none;fillColor=none;align=center;verticalAlign=middle;whiteSpace=wrap;rounded=0;fontSize=16;" vertex="1" parent="1">
                    <mxGeometry x="351.5" y="535" width="60" height="30" as="geometry"/>
                </mxCell>
                <mxCell id="182" value="&lt;span style=&quot;font-size: 9px;&quot;&gt;yes&lt;/span&gt;" style="text;html=1;strokeColor=none;fillColor=none;align=center;verticalAlign=middle;whiteSpace=wrap;rounded=0;fontSize=16;" vertex="1" parent="1">
                    <mxGeometry x="345" y="427.5" width="60" height="30" as="geometry"/>
                </mxCell>
                <mxCell id="183" value="&lt;span style=&quot;font-size: 9px;&quot;&gt;yes&lt;/span&gt;" style="text;html=1;strokeColor=none;fillColor=none;align=center;verticalAlign=middle;whiteSpace=wrap;rounded=0;fontSize=16;" vertex="1" parent="1">
                    <mxGeometry x="355.5" y="317" width="60" height="30" as="geometry"/>
                </mxCell>
                <mxCell id="184" value="&lt;font style=&quot;font-size: 9px;&quot;&gt;yes&lt;/font&gt;" style="text;html=1;strokeColor=none;fillColor=none;align=center;verticalAlign=middle;whiteSpace=wrap;rounded=0;fontSize=16;" vertex="1" parent="1">
                    <mxGeometry x="819" y="1338" width="60" height="30" as="geometry"/>
                </mxCell>
                <mxCell id="185" value="data integrity required?" style="rhombus;whiteSpace=wrap;html=1;fillColor=#d5e8d4;strokeColor=#82b366;" vertex="1" parent="1">
                    <mxGeometry x="674" y="1657.5" width="80" height="80" as="geometry"/>
                </mxCell>
                <mxCell id="186" value="" style="edgeStyle=none;html=1;fontSize=8;entryX=0.5;entryY=0;entryDx=0;entryDy=0;" edge="1" parent="1" target="187">
                    <mxGeometry relative="1" as="geometry">
                        <mxPoint x="714" y="1756.5" as="targetPoint"/>
                        <mxPoint x="713.9999999999991" y="1736.499999999999" as="sourcePoint"/>
                    </mxGeometry>
                </mxCell>
                <mxCell id="187" value="scalability defined?" style="rhombus;whiteSpace=wrap;html=1;fillColor=#d5e8d4;strokeColor=#82b366;" vertex="1" parent="1">
                    <mxGeometry x="674" y="1757.5" width="80" height="80" as="geometry"/>
                </mxCell>
                <mxCell id="188" value="" style="edgeStyle=none;html=1;fontSize=8;entryX=0.5;entryY=0;entryDx=0;entryDy=0;" edge="1" parent="1" target="190">
                    <mxGeometry relative="1" as="geometry">
                        <mxPoint x="714" y="1857" as="targetPoint"/>
                        <mxPoint x="713.9999999999991" y="1837" as="sourcePoint"/>
                    </mxGeometry>
                </mxCell>
                <mxCell id="189" style="edgeStyle=none;html=1;exitX=0;exitY=0.5;exitDx=0;exitDy=0;entryX=1;entryY=0.5;entryDx=0;entryDy=0;" edge="1" parent="1" source="190" target="128">
                    <mxGeometry relative="1" as="geometry"/>
                </mxCell>
                <mxCell id="371" style="edgeStyle=none;html=1;exitX=0.5;exitY=1;exitDx=0;exitDy=0;entryX=0;entryY=0.5;entryDx=0;entryDy=0;" edge="1" parent="1" source="190" target="212">
                    <mxGeometry relative="1" as="geometry">
                        <Array as="points">
                            <mxPoint x="714" y="1990"/>
                            <mxPoint x="860" y="1990"/>
                            <mxPoint x="870" y="1373"/>
                        </Array>
                    </mxGeometry>
                </mxCell>
                <mxCell id="190" value="any other requirements?" style="rhombus;whiteSpace=wrap;html=1;fillColor=#d5e8d4;strokeColor=#82b366;" vertex="1" parent="1">
                    <mxGeometry x="674" y="1858" width="80" height="80" as="geometry"/>
                </mxCell>
                <mxCell id="191" value="" style="edgeStyle=none;html=1;fontSize=8;" edge="1" parent="1" target="192">
                    <mxGeometry relative="1" as="geometry">
                        <mxPoint x="673" y="1697.5" as="sourcePoint"/>
                    </mxGeometry>
                </mxCell>
                <mxCell id="192" value="Ensure the reliability of the process, enabling accuracy, completion etc.&amp;nbsp;" style="whiteSpace=wrap;html=1;" vertex="1" parent="1">
                    <mxGeometry x="431" y="1655.5" width="120" height="80" as="geometry"/>
                </mxCell>
                <mxCell id="193" value="&lt;font style=&quot;font-size: 9px;&quot;&gt;yes&lt;/font&gt;" style="text;html=1;strokeColor=none;fillColor=none;align=center;verticalAlign=middle;whiteSpace=wrap;rounded=0;fontSize=16;" vertex="1" parent="1">
                    <mxGeometry x="632" y="1674.5" width="60" height="30" as="geometry"/>
                </mxCell>
                <mxCell id="194" style="edgeStyle=none;html=1;exitX=0.994;exitY=0.701;exitDx=0;exitDy=0;entryX=1;entryY=0.25;entryDx=0;entryDy=0;exitPerimeter=0;" edge="1" parent="1" source="192">
                    <mxGeometry relative="1" as="geometry">
                        <Array as="points">
                            <mxPoint x="639" y="1712.5"/>
                            <mxPoint x="649" y="1712.5"/>
                            <mxPoint x="649" y="1777.5"/>
                        </Array>
                        <mxPoint x="693" y="1777" as="targetPoint"/>
                        <mxPoint x="614" y="1712" as="sourcePoint"/>
                    </mxGeometry>
                </mxCell>
                <mxCell id="195" value="" style="edgeStyle=none;html=1;fontSize=8;" edge="1" parent="1" target="196">
                    <mxGeometry relative="1" as="geometry">
                        <mxPoint x="673.9999999999991" y="1797.5" as="sourcePoint"/>
                    </mxGeometry>
                </mxCell>
                <mxCell id="196" value="Make sure its shown that scalability is accessible in the process and the result" style="whiteSpace=wrap;html=1;" vertex="1" parent="1">
                    <mxGeometry x="432" y="1755.5" width="120" height="80" as="geometry"/>
                </mxCell>
                <mxCell id="197" value="&lt;font style=&quot;font-size: 9px;&quot;&gt;yes&lt;/font&gt;" style="text;html=1;strokeColor=none;fillColor=none;align=center;verticalAlign=middle;whiteSpace=wrap;rounded=0;fontSize=16;" vertex="1" parent="1">
                    <mxGeometry x="633" y="1774.5" width="60" height="30" as="geometry"/>
                </mxCell>
                <mxCell id="198" style="edgeStyle=none;html=1;exitX=1.001;exitY=0.701;exitDx=0;exitDy=0;entryX=1;entryY=0.25;entryDx=0;entryDy=0;exitPerimeter=0;" edge="1" parent="1" source="196">
                    <mxGeometry relative="1" as="geometry">
                        <Array as="points">
                            <mxPoint x="640" y="1812.5"/>
                            <mxPoint x="650" y="1812.5"/>
                            <mxPoint x="650" y="1877.5"/>
                        </Array>
                        <mxPoint x="693.9999999999991" y="1877" as="targetPoint"/>
                        <mxPoint x="615" y="1812" as="sourcePoint"/>
                    </mxGeometry>
                </mxCell>
                <mxCell id="199" value="&lt;font style=&quot;font-size: 9px;&quot;&gt;no&lt;/font&gt;" style="text;html=1;strokeColor=none;fillColor=none;align=center;verticalAlign=middle;whiteSpace=wrap;rounded=0;fontSize=16;" vertex="1" parent="1">
                    <mxGeometry x="674" y="1518.5" width="60" height="30" as="geometry"/>
                </mxCell>
                <mxCell id="200" value="&lt;font style=&quot;font-size: 9px;&quot;&gt;no&lt;/font&gt;" style="text;html=1;strokeColor=none;fillColor=none;align=center;verticalAlign=middle;whiteSpace=wrap;rounded=0;fontSize=16;" vertex="1" parent="1">
                    <mxGeometry x="673" y="1718.5" width="60" height="30" as="geometry"/>
                </mxCell>
                <mxCell id="201" value="&lt;font style=&quot;font-size: 9px;&quot;&gt;no&lt;/font&gt;" style="text;html=1;strokeColor=none;fillColor=none;align=center;verticalAlign=middle;whiteSpace=wrap;rounded=0;fontSize=16;" vertex="1" parent="1">
                    <mxGeometry x="673" y="1819.5" width="60" height="30" as="geometry"/>
                </mxCell>
                <mxCell id="202" value="&lt;font style=&quot;font-size: 9px;&quot;&gt;no&lt;/font&gt;" style="text;html=1;strokeColor=none;fillColor=none;align=center;verticalAlign=middle;whiteSpace=wrap;rounded=0;fontSize=16;" vertex="1" parent="1">
                    <mxGeometry x="678" y="1920" width="60" height="30" as="geometry"/>
                </mxCell>
                <mxCell id="204" value="&lt;font style=&quot;font-size: 9px;&quot;&gt;yes&lt;/font&gt;" style="text;html=1;strokeColor=none;fillColor=none;align=center;verticalAlign=middle;whiteSpace=wrap;rounded=0;fontSize=16;" vertex="1" parent="1">
                    <mxGeometry x="964.8" y="1716.75" width="60" height="30" as="geometry"/>
                </mxCell>
                <mxCell id="205" value="&lt;font style=&quot;font-size: 9px;&quot;&gt;yes&lt;/font&gt;" style="text;html=1;strokeColor=none;fillColor=none;align=center;verticalAlign=middle;whiteSpace=wrap;rounded=0;fontSize=16;" vertex="1" parent="1">
                    <mxGeometry x="1140.0500000000002" y="1716.75" width="60" height="30" as="geometry"/>
                </mxCell>
                <mxCell id="206" style="edgeStyle=none;html=1;exitX=0.994;exitY=0.701;exitDx=0;exitDy=0;entryX=1;entryY=0.25;entryDx=0;entryDy=0;exitPerimeter=0;" edge="1" parent="1">
                    <mxGeometry relative="1" as="geometry">
                        <Array as="points">
                            <mxPoint x="640.72" y="1609.5"/>
                            <mxPoint x="650.72" y="1609.5"/>
                            <mxPoint x="650.72" y="1674.5"/>
                        </Array>
                        <mxPoint x="694.7200000000003" y="1673.999999999999" as="targetPoint"/>
                        <mxPoint x="552" y="1608.58" as="sourcePoint"/>
                    </mxGeometry>
                </mxCell>
                <mxCell id="208" style="edgeStyle=none;html=1;exitX=0.5;exitY=1;exitDx=0;exitDy=0;entryX=0.5;entryY=0;entryDx=0;entryDy=0;" edge="1" parent="1" source="209" target="240">
                    <mxGeometry relative="1" as="geometry"/>
                </mxCell>
                <mxCell id="209" value="test/run through with NZ Bank on changes/new information" style="rounded=0;whiteSpace=wrap;html=1;fillColor=#e1d5e7;strokeColor=#9673a6;" vertex="1" parent="1">
                    <mxGeometry x="712" y="112" width="120" height="60" as="geometry"/>
                </mxCell>
                <mxCell id="210" value="" style="edgeStyle=none;html=1;exitX=0.5;exitY=1;exitDx=0;exitDy=0;entryX=0.5;entryY=0;entryDx=0;entryDy=0;endArrow=none;" edge="1" parent="1" source="90" target="212">
                    <mxGeometry relative="1" as="geometry">
                        <mxPoint x="1006.75" y="1265" as="sourcePoint"/>
                        <mxPoint x="1006.75" y="1503.5" as="targetPoint"/>
                    </mxGeometry>
                </mxCell>
                <mxCell id="211" value="" style="edgeStyle=none;html=1;" edge="1" parent="1" source="212" target="215">
                    <mxGeometry relative="1" as="geometry"/>
                </mxCell>
                <mxCell id="212" value="test/run through with NZ Bank on changes/new information" style="rounded=0;whiteSpace=wrap;html=1;fillColor=#e1d5e7;strokeColor=#9673a6;" vertex="1" parent="1">
                    <mxGeometry x="946.73" y="1343" width="120" height="60" as="geometry"/>
                </mxCell>
                <mxCell id="213" style="edgeStyle=none;html=1;exitX=0.5;exitY=1;exitDx=0;exitDy=0;entryX=0.5;entryY=0;entryDx=0;entryDy=0;" edge="1" parent="1" source="215" target="104">
                    <mxGeometry relative="1" as="geometry">
                        <Array as="points">
                            <mxPoint x="1140" y="1460"/>
                            <mxPoint x="1007" y="1460"/>
                        </Array>
                    </mxGeometry>
                </mxCell>
                <mxCell id="214" value="" style="edgeStyle=none;html=1;" edge="1" parent="1" source="215" target="217">
                    <mxGeometry relative="1" as="geometry"/>
                </mxCell>
                <mxCell id="215" value="is successful?" style="rhombus;whiteSpace=wrap;html=1;rounded=0;fillColor=#d5e8d4;strokeColor=#82b366;" vertex="1" parent="1">
                    <mxGeometry x="1100" y="1333" width="80" height="80" as="geometry"/>
                </mxCell>
                <mxCell id="216" style="edgeStyle=none;html=1;exitX=0.5;exitY=1;exitDx=0;exitDy=0;entryX=0.5;entryY=0;entryDx=0;entryDy=0;" edge="1" parent="1" source="217" target="104">
                    <mxGeometry relative="1" as="geometry">
                        <mxPoint x="1130" y="1460" as="targetPoint"/>
                        <Array as="points">
                            <mxPoint x="1300" y="1460"/>
                            <mxPoint x="1007" y="1460"/>
                        </Array>
                    </mxGeometry>
                </mxCell>
                <mxCell id="217" value="troubleshoot, enquire perspective from NZ Bank" style="whiteSpace=wrap;html=1;rounded=0;" vertex="1" parent="1">
                    <mxGeometry x="1239.31" y="1342" width="120" height="60" as="geometry"/>
                </mxCell>
                <mxCell id="220" value="&lt;font style=&quot;font-size: 9px;&quot;&gt;no&lt;/font&gt;" style="text;html=1;strokeColor=none;fillColor=none;align=center;verticalAlign=middle;whiteSpace=wrap;rounded=0;fontSize=16;" vertex="1" parent="1">
                    <mxGeometry x="1157.02" y="1364" width="60" height="30" as="geometry"/>
                </mxCell>
                <mxCell id="221" value="&lt;font style=&quot;font-size: 9px;&quot;&gt;yes&lt;/font&gt;" style="text;html=1;strokeColor=none;fillColor=none;align=center;verticalAlign=middle;whiteSpace=wrap;rounded=0;fontSize=16;" vertex="1" parent="1">
                    <mxGeometry x="966.75" y="1250" width="60" height="30" as="geometry"/>
                </mxCell>
                <mxCell id="223" value="&lt;font style=&quot;font-size: 9px;&quot;&gt;no&lt;/font&gt;" style="text;html=1;strokeColor=none;fillColor=none;align=center;verticalAlign=middle;whiteSpace=wrap;rounded=0;fontSize=16;" vertex="1" parent="1">
                    <mxGeometry x="1039.05" y="1644.25" width="60" height="30" as="geometry"/>
                </mxCell>
                <mxCell id="224" value="&lt;font style=&quot;font-size: 9px;&quot;&gt;no&lt;/font&gt;" style="text;html=1;strokeColor=none;fillColor=none;align=center;verticalAlign=middle;whiteSpace=wrap;rounded=0;fontSize=16;" vertex="1" parent="1">
                    <mxGeometry x="1218.7800000000002" y="1645.75" width="60" height="30" as="geometry"/>
                </mxCell>
                <mxCell id="225" value="" style="edgeStyle=none;html=1;" edge="1" parent="1">
                    <mxGeometry relative="1" as="geometry">
                        <mxPoint x="1343.0067126414324" y="1735.4986278619517" as="sourcePoint"/>
                        <mxPoint x="1341.6591007194247" y="1781.75" as="targetPoint"/>
                    </mxGeometry>
                </mxCell>
                <mxCell id="226" value="any other conditions unspecified here?" style="rhombus;whiteSpace=wrap;html=1;fillColor=#d5e8d4;strokeColor=#82b366;" vertex="1" parent="1">
                    <mxGeometry x="1290.0500000000002" y="1607.75" width="105.57" height="130" as="geometry"/>
                </mxCell>
                <mxCell id="227" style="edgeStyle=none;html=1;exitX=1;exitY=0.5;exitDx=0;exitDy=0;entryX=0;entryY=0.5;entryDx=0;entryDy=0;" edge="1" parent="1" source="228" target="137">
                    <mxGeometry relative="1" as="geometry">
                        <Array as="points">
                            <mxPoint x="1420.0500000000002" y="1811.75"/>
                            <mxPoint x="1420.0500000000002" y="1672.75"/>
                        </Array>
                    </mxGeometry>
                </mxCell>
                <mxCell id="228" value="document and implement accordingly" style="whiteSpace=wrap;html=1;" vertex="1" parent="1">
                    <mxGeometry x="1278.7850000000003" y="1781.75" width="120" height="60" as="geometry"/>
                </mxCell>
                <mxCell id="229" value="&lt;font style=&quot;font-size: 9px;&quot;&gt;yes&lt;/font&gt;" style="text;html=1;strokeColor=none;fillColor=none;align=center;verticalAlign=middle;whiteSpace=wrap;rounded=0;fontSize=16;" vertex="1" parent="1">
                    <mxGeometry x="1297.0500000000002" y="1716.25" width="60" height="30" as="geometry"/>
                </mxCell>
                <mxCell id="230" value="&lt;font style=&quot;font-size: 9px;&quot;&gt;no&lt;/font&gt;" style="text;html=1;strokeColor=none;fillColor=none;align=center;verticalAlign=middle;whiteSpace=wrap;rounded=0;fontSize=16;" vertex="1" parent="1">
                    <mxGeometry x="1375.7800000000002" y="1645.25" width="60" height="30" as="geometry"/>
                </mxCell>
                <mxCell id="231" style="edgeStyle=none;html=1;exitX=0.5;exitY=1;exitDx=0;exitDy=0;entryX=0.5;entryY=0;entryDx=0;entryDy=0;" edge="1" parent="1" source="232" target="235">
                    <mxGeometry relative="1" as="geometry"/>
                </mxCell>
                <mxCell id="232" value="test/run through with NZ Bank on changes/new information" style="rounded=0;whiteSpace=wrap;html=1;fillColor=#e1d5e7;strokeColor=#9673a6;" vertex="1" parent="1">
                    <mxGeometry x="1452.9600000000003" y="1738.25" width="120" height="60" as="geometry"/>
                </mxCell>
                <mxCell id="233" style="edgeStyle=none;html=1;exitX=1;exitY=0.5;exitDx=0;exitDy=0;entryX=0;entryY=0.5;entryDx=0;entryDy=0;" edge="1" parent="1" source="235" target="139">
                    <mxGeometry relative="1" as="geometry">
                        <Array as="points">
                            <mxPoint x="1610" y="1861"/>
                            <mxPoint x="1610" y="2020"/>
                        </Array>
                    </mxGeometry>
                </mxCell>
                <mxCell id="234" style="edgeStyle=none;html=1;exitX=0.5;exitY=1;exitDx=0;exitDy=0;entryX=0.5;entryY=0;entryDx=0;entryDy=0;" edge="1" parent="1" source="235" target="237">
                    <mxGeometry relative="1" as="geometry"/>
                </mxCell>
                <mxCell id="235" value="is successful?" style="rhombus;whiteSpace=wrap;html=1;rounded=0;fillColor=#d5e8d4;strokeColor=#82b366;" vertex="1" parent="1">
                    <mxGeometry x="1472.9600000000003" y="1821.25" width="80" height="80" as="geometry"/>
                </mxCell>
                <mxCell id="236" style="edgeStyle=none;html=1;exitX=1;exitY=0.5;exitDx=0;exitDy=0;entryX=0;entryY=0.5;entryDx=0;entryDy=0;" edge="1" parent="1" source="237" target="139">
                    <mxGeometry relative="1" as="geometry">
                        <Array as="points">
                            <mxPoint x="1600" y="1960"/>
                            <mxPoint x="1603" y="2020"/>
                        </Array>
                    </mxGeometry>
                </mxCell>
                <mxCell id="237" value="troubleshoot, enquire perspective from NZ Bank" style="whiteSpace=wrap;html=1;rounded=0;" vertex="1" parent="1">
                    <mxGeometry x="1452.9600000000003" y="1929.25" width="120" height="60" as="geometry"/>
                </mxCell>
                <mxCell id="238" style="edgeStyle=none;html=1;exitX=0.5;exitY=1;exitDx=0;exitDy=0;entryX=0.5;entryY=0;entryDx=0;entryDy=0;" edge="1" parent="1" source="240" target="242">
                    <mxGeometry relative="1" as="geometry"/>
                </mxCell>
                <mxCell id="239" style="edgeStyle=none;html=1;exitX=1;exitY=0.5;exitDx=0;exitDy=0;entryX=0;entryY=0.5;entryDx=0;entryDy=0;" edge="1" parent="1" source="240" target="107">
                    <mxGeometry relative="1" as="geometry">
                        <Array as="points">
                            <mxPoint x="840" y="230"/>
                            <mxPoint x="840" y="143"/>
                        </Array>
                    </mxGeometry>
                </mxCell>
                <mxCell id="240" value="is successful?" style="rhombus;whiteSpace=wrap;html=1;rounded=0;fillColor=#d5e8d4;strokeColor=#82b366;" vertex="1" parent="1">
                    <mxGeometry x="732" y="190" width="80" height="80" as="geometry"/>
                </mxCell>
                <mxCell id="241" style="edgeStyle=none;html=1;exitX=0.999;exitY=0.455;exitDx=0;exitDy=0;entryX=0;entryY=0.5;entryDx=0;entryDy=0;exitPerimeter=0;" edge="1" parent="1" source="242" target="107">
                    <mxGeometry relative="1" as="geometry">
                        <mxPoint x="832" y="326" as="sourcePoint"/>
                        <mxPoint x="906.5" y="142.5" as="targetPoint"/>
                        <Array as="points">
                            <mxPoint x="860" y="330"/>
                            <mxPoint x="860" y="143"/>
                        </Array>
                    </mxGeometry>
                </mxCell>
                <mxCell id="242" value="troubleshoot, enquire perspective from NZ Bank" style="whiteSpace=wrap;html=1;rounded=0;" vertex="1" parent="1">
                    <mxGeometry x="712" y="302" width="120" height="60" as="geometry"/>
                </mxCell>
                <mxCell id="243" value="" style="edgeStyle=none;html=1;" edge="1" parent="1" source="245" target="248">
                    <mxGeometry relative="1" as="geometry"/>
                </mxCell>
                <mxCell id="244" value="" style="edgeStyle=none;html=1;" edge="1" parent="1" source="245">
                    <mxGeometry relative="1" as="geometry">
                        <mxPoint x="1754.9099999999999" y="2556" as="targetPoint"/>
                    </mxGeometry>
                </mxCell>
                <mxCell id="245" value="if a source table has a particular column, are they correctly mapped to the correct target data field?" style="rhombus;whiteSpace=wrap;html=1;fillColor=#d5e8d4;strokeColor=#82b366;" vertex="1" parent="1">
                    <mxGeometry x="1699.91" y="2356" width="110" height="120" as="geometry"/>
                </mxCell>
                <mxCell id="246" value="" style="edgeStyle=none;html=1;" edge="1" parent="1" source="248" target="250">
                    <mxGeometry relative="1" as="geometry"/>
                </mxCell>
                <mxCell id="247" style="edgeStyle=none;html=1;exitX=0.5;exitY=1;exitDx=0;exitDy=0;entryX=0.5;entryY=0;entryDx=0;entryDy=0;" edge="1" parent="1" source="248">
                    <mxGeometry relative="1" as="geometry">
                        <mxPoint x="1754.9099999999999" y="2556" as="targetPoint"/>
                        <Array as="points">
                            <mxPoint x="1579.91" y="2506"/>
                            <mxPoint x="1754.91" y="2506"/>
                        </Array>
                    </mxGeometry>
                </mxCell>
                <mxCell id="248" value="review the data that is required to be mapped correctly" style="whiteSpace=wrap;html=1;" vertex="1" parent="1">
                    <mxGeometry x="1519.64" y="2386" width="120" height="60" as="geometry"/>
                </mxCell>
                <mxCell id="249" style="edgeStyle=none;html=1;exitX=0.5;exitY=1;exitDx=0;exitDy=0;entryX=0.5;entryY=0;entryDx=0;entryDy=0;" edge="1" parent="1" source="250">
                    <mxGeometry relative="1" as="geometry">
                        <mxPoint x="1754.9099999999999" y="2556" as="targetPoint"/>
                        <Array as="points">
                            <mxPoint x="1413.91" y="2506"/>
                            <mxPoint x="1754.91" y="2506"/>
                        </Array>
                    </mxGeometry>
                </mxCell>
                <mxCell id="250" value="update and configure the mapping according to its contents" style="whiteSpace=wrap;html=1;" vertex="1" parent="1">
                    <mxGeometry x="1353.5200000000002" y="2386" width="120" height="60" as="geometry"/>
                </mxCell>
                <mxCell id="251" value="&lt;font style=&quot;font-size: 9px;&quot;&gt;yes&lt;/font&gt;" style="text;html=1;strokeColor=none;fillColor=none;align=center;verticalAlign=middle;whiteSpace=wrap;rounded=0;fontSize=16;" vertex="1" parent="1">
                    <mxGeometry x="1549.6399999999996" y="2608" width="60" height="30" as="geometry"/>
                </mxCell>
                <mxCell id="252" value="" style="edgeStyle=none;html=1;" edge="1" parent="1" source="254" target="257">
                    <mxGeometry relative="1" as="geometry"/>
                </mxCell>
                <mxCell id="253" style="edgeStyle=none;html=1;exitX=0.5;exitY=1;exitDx=0;exitDy=0;" edge="1" parent="1" source="254" target="262">
                    <mxGeometry relative="1" as="geometry"/>
                </mxCell>
                <mxCell id="254" value="test/run through with NZ Bank on changes/new information" style="rounded=0;whiteSpace=wrap;html=1;fillColor=#e1d5e7;strokeColor=#9673a6;" vertex="1" parent="1">
                    <mxGeometry x="1691.27" y="2556" width="120" height="60" as="geometry"/>
                </mxCell>
                <mxCell id="255" value="" style="edgeStyle=none;html=1;" edge="1" parent="1" source="257" target="259">
                    <mxGeometry relative="1" as="geometry"/>
                </mxCell>
                <mxCell id="256" style="edgeStyle=none;html=1;exitX=0.5;exitY=1;exitDx=0;exitDy=0;entryX=0;entryY=0.5;entryDx=0;entryDy=0;" edge="1" parent="1" source="257" target="262">
                    <mxGeometry relative="1" as="geometry">
                        <Array as="points">
                            <mxPoint x="1564" y="2706"/>
                        </Array>
                    </mxGeometry>
                </mxCell>
                <mxCell id="257" value="is successful?" style="rhombus;whiteSpace=wrap;html=1;rounded=0;fillColor=#d5e8d4;strokeColor=#82b366;" vertex="1" parent="1">
                    <mxGeometry x="1523.9999999999995" y="2546" width="80" height="80" as="geometry"/>
                </mxCell>
                <mxCell id="258" style="edgeStyle=none;html=1;exitX=0.5;exitY=1;exitDx=0;exitDy=0;entryX=0;entryY=0.5;entryDx=0;entryDy=0;" edge="1" parent="1" source="259" target="262">
                    <mxGeometry relative="1" as="geometry">
                        <mxPoint x="1704" y="2706" as="targetPoint"/>
                        <Array as="points">
                            <mxPoint x="1408" y="2706"/>
                        </Array>
                    </mxGeometry>
                </mxCell>
                <mxCell id="259" value="troubleshoot, enquire perspective from NZ Bank" style="whiteSpace=wrap;html=1;rounded=0;" vertex="1" parent="1">
                    <mxGeometry x="1348" y="2556" width="120" height="60" as="geometry"/>
                </mxCell>
                <mxCell id="260" value="&lt;font style=&quot;font-size: 9px;&quot;&gt;no&lt;/font&gt;" style="text;html=1;strokeColor=none;fillColor=none;align=center;verticalAlign=middle;whiteSpace=wrap;rounded=0;fontSize=16;" vertex="1" parent="1">
                    <mxGeometry x="1485" y="2578" width="60" height="30" as="geometry"/>
                </mxCell>
                <mxCell id="261" value="" style="edgeStyle=none;html=1;" edge="1" parent="1" source="262" target="265">
                    <mxGeometry relative="1" as="geometry"/>
                </mxCell>
                <mxCell id="262" value="transform" style="ellipse;whiteSpace=wrap;html=1;aspect=fixed;fillColor=#dae8fc;strokeColor=#6c8ebf;" vertex="1" parent="1">
                    <mxGeometry x="1711.27" y="2666" width="80" height="80" as="geometry"/>
                </mxCell>
                <mxCell id="263" value="" style="edgeStyle=none;html=1;" edge="1" parent="1" source="265" target="267">
                    <mxGeometry relative="1" as="geometry"/>
                </mxCell>
                <mxCell id="264" style="edgeStyle=none;html=1;exitX=0.5;exitY=1;exitDx=0;exitDy=0;" edge="1" parent="1" source="265" target="275">
                    <mxGeometry relative="1" as="geometry"/>
                </mxCell>
                <mxCell id="265" value="are formatting conversions necessary for compatibility?" style="rhombus;whiteSpace=wrap;html=1;fillColor=#d5e8d4;strokeColor=#82b366;" vertex="1" parent="1">
                    <mxGeometry x="1711.27" y="2806" width="80" height="80" as="geometry"/>
                </mxCell>
                <mxCell id="266" value="" style="edgeStyle=none;html=1;" edge="1" parent="1" source="267" target="269">
                    <mxGeometry relative="1" as="geometry"/>
                </mxCell>
                <mxCell id="267" value="identify data elements needed for conversion" style="whiteSpace=wrap;html=1;" vertex="1" parent="1">
                    <mxGeometry x="1531.27" y="2816" width="120" height="60" as="geometry"/>
                </mxCell>
                <mxCell id="268" value="" style="edgeStyle=none;html=1;" edge="1" parent="1" source="269" target="271">
                    <mxGeometry relative="1" as="geometry"/>
                </mxCell>
                <mxCell id="269" value="determine changes that needs to be done" style="whiteSpace=wrap;html=1;" vertex="1" parent="1">
                    <mxGeometry x="1531.27" y="2896" width="120" height="60" as="geometry"/>
                </mxCell>
                <mxCell id="270" style="edgeStyle=none;html=1;exitX=1;exitY=0.5;exitDx=0;exitDy=0;entryX=0.5;entryY=0;entryDx=0;entryDy=0;" edge="1" parent="1" source="271" target="275">
                    <mxGeometry relative="1" as="geometry">
                        <Array as="points">
                            <mxPoint x="1751" y="3006"/>
                        </Array>
                    </mxGeometry>
                </mxCell>
                <mxCell id="271" value="implement changes" style="whiteSpace=wrap;html=1;" vertex="1" parent="1">
                    <mxGeometry x="1531.27" y="2976" width="120" height="60" as="geometry"/>
                </mxCell>
                <mxCell id="272" value="&lt;font style=&quot;font-size: 9px;&quot;&gt;yes&lt;/font&gt;" style="text;html=1;strokeColor=none;fillColor=none;align=center;verticalAlign=middle;whiteSpace=wrap;rounded=0;fontSize=16;" vertex="1" parent="1">
                    <mxGeometry x="1555.6299999999997" y="3118" width="60" height="30" as="geometry"/>
                </mxCell>
                <mxCell id="273" value="" style="edgeStyle=none;html=1;" edge="1" parent="1" source="275" target="278">
                    <mxGeometry relative="1" as="geometry"/>
                </mxCell>
                <mxCell id="274" style="edgeStyle=none;html=1;exitX=0.5;exitY=1;exitDx=0;exitDy=0;" edge="1" parent="1" source="275" target="283">
                    <mxGeometry relative="1" as="geometry"/>
                </mxCell>
                <mxCell id="275" value="test/run through with NZ Bank on changes/new information" style="rounded=0;whiteSpace=wrap;html=1;fillColor=#e1d5e7;strokeColor=#9673a6;" vertex="1" parent="1">
                    <mxGeometry x="1691.27" y="3066" width="120" height="60" as="geometry"/>
                </mxCell>
                <mxCell id="276" value="" style="edgeStyle=none;html=1;" edge="1" parent="1" source="278">
                    <mxGeometry relative="1" as="geometry">
                        <mxPoint x="1468" y="3096" as="targetPoint"/>
                    </mxGeometry>
                </mxCell>
                <mxCell id="277" style="edgeStyle=none;html=1;exitX=0.5;exitY=1;exitDx=0;exitDy=0;entryX=0;entryY=0.5;entryDx=0;entryDy=0;" edge="1" parent="1" source="278" target="283">
                    <mxGeometry relative="1" as="geometry">
                        <Array as="points">
                            <mxPoint x="1599" y="3190"/>
                        </Array>
                    </mxGeometry>
                </mxCell>
                <mxCell id="278" value="is successful?" style="rhombus;whiteSpace=wrap;html=1;rounded=0;fillColor=#d5e8d4;strokeColor=#82b366;" vertex="1" parent="1">
                    <mxGeometry x="1559.4599999999996" y="3056" width="80" height="80" as="geometry"/>
                </mxCell>
                <mxCell id="279" style="edgeStyle=none;html=1;exitX=0.5;exitY=1;exitDx=0;exitDy=0;entryX=0;entryY=0.5;entryDx=0;entryDy=0;" edge="1" parent="1" target="283">
                    <mxGeometry relative="1" as="geometry">
                        <mxPoint x="1704" y="3216" as="targetPoint"/>
                        <Array as="points">
                            <mxPoint x="1410" y="3190"/>
                        </Array>
                        <mxPoint x="1408" y="3126" as="sourcePoint"/>
                    </mxGeometry>
                </mxCell>
                <mxCell id="280" value="troubleshoot, enquire perspective from NZ Bank" style="whiteSpace=wrap;html=1;rounded=0;" vertex="1" parent="1">
                    <mxGeometry x="1347.73" y="3072" width="120" height="60" as="geometry"/>
                </mxCell>
                <mxCell id="281" value="&lt;font style=&quot;font-size: 9px;&quot;&gt;no&lt;/font&gt;" style="text;html=1;strokeColor=none;fillColor=none;align=center;verticalAlign=middle;whiteSpace=wrap;rounded=0;fontSize=16;" vertex="1" parent="1">
                    <mxGeometry x="1524" y="3088" width="60" height="30" as="geometry"/>
                </mxCell>
                <mxCell id="282" value="" style="edgeStyle=none;html=1;" edge="1" parent="1" source="283" target="308">
                    <mxGeometry relative="1" as="geometry"/>
                </mxCell>
                <mxCell id="283" value="load data" style="ellipse;whiteSpace=wrap;html=1;aspect=fixed;fillColor=#dae8fc;strokeColor=#6c8ebf;" vertex="1" parent="1">
                    <mxGeometry x="1711.27" y="3150" width="80" height="80" as="geometry"/>
                </mxCell>
                <mxCell id="284" value="" style="endArrow=none;html=1;strokeWidth=2;fillColor=#f8cecc;strokeColor=#b85450;dashed=1;" edge="1" parent="1">
                    <mxGeometry width="50" height="50" relative="1" as="geometry">
                        <mxPoint x="840" y="930" as="sourcePoint"/>
                        <mxPoint x="840" y="930" as="targetPoint"/>
                        <Array as="points">
                            <mxPoint x="850" y="-520"/>
                            <mxPoint x="-490" y="-520"/>
                            <mxPoint x="-490" y="240"/>
                            <mxPoint x="40" y="240"/>
                            <mxPoint x="40" y="930"/>
                        </Array>
                    </mxGeometry>
                </mxCell>
                <mxCell id="285" value="" style="endArrow=none;html=1;strokeWidth=2;fillColor=#f8cecc;strokeColor=#b85450;dashed=1;" edge="1" parent="1">
                    <mxGeometry width="50" height="50" relative="1" as="geometry">
                        <mxPoint x="1430" y="1480" as="sourcePoint"/>
                        <mxPoint x="1430" y="1480" as="targetPoint"/>
                        <Array as="points">
                            <mxPoint x="1430" y="94"/>
                            <mxPoint x="860" y="93.5"/>
                            <mxPoint x="850" y="940"/>
                            <mxPoint x="160" y="940"/>
                            <mxPoint x="160" y="2080"/>
                            <mxPoint x="900" y="2080"/>
                            <mxPoint x="900" y="1480"/>
                        </Array>
                    </mxGeometry>
                </mxCell>
                <mxCell id="286" value="" style="endArrow=none;html=1;strokeWidth=2;fillColor=#f8cecc;strokeColor=#b85450;dashed=1;" edge="1" parent="1">
                    <mxGeometry width="50" height="50" relative="1" as="geometry">
                        <mxPoint x="1620" y="2030" as="sourcePoint"/>
                        <mxPoint x="1620" y="2030" as="targetPoint"/>
                        <Array as="points">
                            <mxPoint x="1420" y="2030"/>
                            <mxPoint x="1420" y="1860"/>
                            <mxPoint x="920" y="1860"/>
                            <mxPoint x="920" y="1500"/>
                            <mxPoint x="1620" y="1500"/>
                        </Array>
                    </mxGeometry>
                </mxCell>
                <mxCell id="287" value="" style="endArrow=none;html=1;strokeWidth=2;fillColor=#f8cecc;strokeColor=#b85450;dashed=1;" edge="1" parent="1">
                    <mxGeometry width="50" height="50" relative="1" as="geometry">
                        <mxPoint x="1850" y="2650" as="sourcePoint"/>
                        <mxPoint x="1850" y="2650" as="targetPoint"/>
                        <Array as="points">
                            <mxPoint x="1320" y="2650"/>
                            <mxPoint x="1320" y="2190"/>
                            <mxPoint x="1639" y="2190"/>
                            <mxPoint x="1639" y="1960"/>
                            <mxPoint x="1860" y="1960"/>
                        </Array>
                    </mxGeometry>
                </mxCell>
                <mxCell id="288" value="" style="endArrow=none;html=1;strokeWidth=2;fillColor=#f8cecc;strokeColor=#b85450;dashed=1;" edge="1" parent="1">
                    <mxGeometry width="50" height="50" relative="1" as="geometry">
                        <mxPoint x="1850" y="3160" as="sourcePoint"/>
                        <mxPoint x="1850" y="3160" as="targetPoint"/>
                        <Array as="points">
                            <mxPoint x="1320" y="3160"/>
                            <mxPoint x="1320" y="2790"/>
                            <mxPoint x="1620" y="2790"/>
                            <mxPoint x="1620" y="2660"/>
                            <mxPoint x="1854" y="2659.75"/>
                        </Array>
                    </mxGeometry>
                </mxCell>
                <mxCell id="289" value="&lt;h1&gt;gathering information&lt;/h1&gt;&lt;div&gt;&lt;span style=&quot;text-align: center;&quot;&gt;Helps getting information about what is needing to be done; including ideas such as knowing what will be converted and where it'll be put into&lt;/span&gt;&lt;br&gt;&lt;/div&gt;" style="text;html=1;strokeColor=none;fillColor=none;spacing=5;spacingTop=-20;whiteSpace=wrap;overflow=hidden;rounded=0;" vertex="1" parent="1">
                    <mxGeometry x="-460" y="254.5" width="287.5" height="120" as="geometry"/>
                </mxCell>
                <mxCell id="290" value="&lt;h1&gt;create project scope&lt;/h1&gt;&lt;div&gt;&lt;span style=&quot;text-align: center;&quot;&gt;Defines the purpose and any conditions needed during the integration process&lt;/span&gt;&lt;br&gt;&lt;/div&gt;" style="text;html=1;strokeColor=none;fillColor=none;spacing=5;spacingTop=-20;whiteSpace=wrap;overflow=hidden;rounded=0;" vertex="1" parent="1">
                    <mxGeometry x="167.75" y="2087.5" width="287.5" height="120" as="geometry"/>
                </mxCell>
                <mxCell id="291" value="&lt;h1&gt;extract the SQL data&lt;/h1&gt;&lt;div&gt;&lt;span style=&quot;text-align: center;&quot;&gt;Enquires customization and encourages flexibility in the data extraction process to understand any further information about the data needing to be converted&lt;/span&gt;&lt;br&gt;&lt;/div&gt;" style="text;html=1;strokeColor=none;fillColor=none;spacing=5;spacingTop=-20;whiteSpace=wrap;overflow=hidden;rounded=0;" vertex="1" parent="1">
                    <mxGeometry x="934.12" y="1890" width="287.5" height="120" as="geometry"/>
                </mxCell>
                <mxCell id="292" value="&lt;h1&gt;Mapping the data&lt;/h1&gt;&lt;div&gt;&lt;span style=&quot;text-align: center;&quot;&gt;Used to establish a place for certain information to be used for its purpose&lt;/span&gt;&lt;br&gt;&lt;/div&gt;" style="text;html=1;strokeColor=none;fillColor=none;spacing=5;spacingTop=-20;whiteSpace=wrap;overflow=hidden;rounded=0;" vertex="1" parent="1">
                    <mxGeometry x="1278.74" y="2666" width="221.26" height="120" as="geometry"/>
                </mxCell>
                <mxCell id="293" value="&lt;h1&gt;transforming the data&lt;/h1&gt;&lt;div&gt;&lt;span style=&quot;text-align: center;&quot;&gt;Making sure everything is compatible with each other&lt;/span&gt;&lt;br&gt;&lt;/div&gt;" style="text;html=1;strokeColor=none;fillColor=none;spacing=5;spacingTop=-20;whiteSpace=wrap;overflow=hidden;rounded=0;" vertex="1" parent="1">
                    <mxGeometry x="1340" y="3200" width="287.5" height="120" as="geometry"/>
                </mxCell>
                <mxCell id="294" value="&lt;span style=&quot;font-size: 9px;&quot;&gt;no&lt;/span&gt;" style="text;html=1;strokeColor=none;fillColor=none;align=center;verticalAlign=middle;whiteSpace=wrap;rounded=0;fontSize=16;" vertex="1" parent="1">
                    <mxGeometry x="728" y="251.5" width="60" height="30" as="geometry"/>
                </mxCell>
                <mxCell id="295" value="&lt;span style=&quot;font-size: 9px;&quot;&gt;yes&lt;/span&gt;" style="text;html=1;strokeColor=none;fillColor=none;align=center;verticalAlign=middle;whiteSpace=wrap;rounded=0;fontSize=16;" vertex="1" parent="1">
                    <mxGeometry x="789.5" y="201.5" width="60" height="30" as="geometry"/>
                </mxCell>
                <mxCell id="296" value="&lt;font style=&quot;font-size: 9px;&quot;&gt;yes&lt;/font&gt;" style="text;html=1;strokeColor=none;fillColor=none;align=center;verticalAlign=middle;whiteSpace=wrap;rounded=0;fontSize=16;" vertex="1" parent="1">
                    <mxGeometry x="441" y="1003.5" width="60" height="30" as="geometry"/>
                </mxCell>
                <mxCell id="297" value="&lt;font style=&quot;font-size: 9px;&quot;&gt;no&lt;/font&gt;" style="text;html=1;strokeColor=none;fillColor=none;align=center;verticalAlign=middle;whiteSpace=wrap;rounded=0;fontSize=16;" vertex="1" parent="1">
                    <mxGeometry x="407" y="973.5" width="60" height="30" as="geometry"/>
                </mxCell>
                <mxCell id="298" value="&lt;font style=&quot;font-size: 9px;&quot;&gt;yes&lt;/font&gt;" style="text;html=1;strokeColor=none;fillColor=none;align=center;verticalAlign=middle;whiteSpace=wrap;rounded=0;fontSize=16;" vertex="1" parent="1">
                    <mxGeometry x="270" y="1005.5" width="60" height="30" as="geometry"/>
                </mxCell>
                <mxCell id="299" value="&lt;font style=&quot;font-size: 9px;&quot;&gt;no&lt;/font&gt;" style="text;html=1;strokeColor=none;fillColor=none;align=center;verticalAlign=middle;whiteSpace=wrap;rounded=0;fontSize=16;" vertex="1" parent="1">
                    <mxGeometry x="239" y="973.5" width="60" height="30" as="geometry"/>
                </mxCell>
                <mxCell id="300" value="&lt;font style=&quot;font-size: 9px;&quot;&gt;yes&lt;/font&gt;" style="text;html=1;strokeColor=none;fillColor=none;align=center;verticalAlign=middle;whiteSpace=wrap;rounded=0;fontSize=16;" vertex="1" parent="1">
                    <mxGeometry x="1534.0500000000002" y="1851.75" width="60" height="30" as="geometry"/>
                </mxCell>
                <mxCell id="301" value="&lt;font style=&quot;font-size: 9px;&quot;&gt;no&lt;/font&gt;" style="text;html=1;strokeColor=none;fillColor=none;align=center;verticalAlign=middle;whiteSpace=wrap;rounded=0;fontSize=16;" vertex="1" parent="1">
                    <mxGeometry x="1472.9600000000003" y="1881.75" width="60" height="30" as="geometry"/>
                </mxCell>
                <mxCell id="302" value="&lt;font style=&quot;font-size: 9px;&quot;&gt;yes&lt;/font&gt;" style="text;html=1;strokeColor=none;fillColor=none;align=center;verticalAlign=middle;whiteSpace=wrap;rounded=0;fontSize=16;" vertex="1" parent="1">
                    <mxGeometry x="1715.91" y="2460" width="60" height="30" as="geometry"/>
                </mxCell>
                <mxCell id="303" value="&lt;font style=&quot;font-size: 9px;&quot;&gt;no&lt;/font&gt;" style="text;html=1;strokeColor=none;fillColor=none;align=center;verticalAlign=middle;whiteSpace=wrap;rounded=0;fontSize=16;" vertex="1" parent="1">
                    <mxGeometry x="1653.2700000000002" y="2405" width="60" height="30" as="geometry"/>
                </mxCell>
                <mxCell id="304" value="&lt;font style=&quot;font-size: 9px;&quot;&gt;yes&lt;/font&gt;" style="text;html=1;strokeColor=none;fillColor=none;align=center;verticalAlign=middle;whiteSpace=wrap;rounded=0;fontSize=16;" vertex="1" parent="1">
                    <mxGeometry x="1666.9099999999996" y="2831" width="60" height="30" as="geometry"/>
                </mxCell>
                <mxCell id="305" value="&lt;font style=&quot;font-size: 9px;&quot;&gt;no&lt;/font&gt;" style="text;html=1;strokeColor=none;fillColor=none;align=center;verticalAlign=middle;whiteSpace=wrap;rounded=0;fontSize=16;" vertex="1" parent="1">
                    <mxGeometry x="1713.27" y="2876" width="60" height="30" as="geometry"/>
                </mxCell>
                <mxCell id="306" value="" style="edgeStyle=none;html=1;" edge="1" parent="1" target="310">
                    <mxGeometry relative="1" as="geometry">
                        <mxPoint x="1751" y="3390" as="sourcePoint"/>
                    </mxGeometry>
                </mxCell>
                <mxCell id="307" style="edgeStyle=none;html=1;exitX=0.5;exitY=1;exitDx=0;exitDy=0;entryX=0.5;entryY=0;entryDx=0;entryDy=0;" edge="1" parent="1" source="308" target="311">
                    <mxGeometry relative="1" as="geometry"/>
                </mxCell>
                <mxCell id="308" value="connect to the NoSQL database" style="whiteSpace=wrap;html=1;" vertex="1" parent="1">
                    <mxGeometry x="1691.27" y="3250" width="120" height="60" as="geometry"/>
                </mxCell>
                <mxCell id="309" value="" style="edgeStyle=none;html=1;" edge="1" parent="1" source="310" target="314">
                    <mxGeometry relative="1" as="geometry"/>
                </mxCell>
                <mxCell id="310" value="load data (including transformed data) in relation to the specific mapped outlines" style="whiteSpace=wrap;html=1;" vertex="1" parent="1">
                    <mxGeometry x="1689.91" y="3410" width="120" height="60" as="geometry"/>
                </mxCell>
                <mxCell id="311" value="create the necessary tables/collections for the integrated data" style="whiteSpace=wrap;html=1;" vertex="1" parent="1">
                    <mxGeometry x="1690.91" y="3330" width="120" height="60" as="geometry"/>
                </mxCell>
                <mxCell id="312" value="" style="edgeStyle=none;html=1;" edge="1" parent="1" source="314" target="316">
                    <mxGeometry relative="1" as="geometry"/>
                </mxCell>
                <mxCell id="313" value="" style="edgeStyle=none;html=1;" edge="1" parent="1" source="314" target="318">
                    <mxGeometry relative="1" as="geometry"/>
                </mxCell>
                <mxCell id="314" value="is a source a file?" style="rhombus;whiteSpace=wrap;html=1;fillColor=#d5e8d4;strokeColor=#82b366;" vertex="1" parent="1">
                    <mxGeometry x="1711.27" y="3510" width="80" height="80" as="geometry"/>
                </mxCell>
                <mxCell id="315" style="edgeStyle=none;html=1;exitX=0;exitY=0.5;exitDx=0;exitDy=0;entryX=0.5;entryY=0;entryDx=0;entryDy=0;" edge="1" parent="1" source="316" target="324">
                    <mxGeometry relative="1" as="geometry">
                        <Array as="points">
                            <mxPoint x="1470" y="3550"/>
                            <mxPoint x="1470" y="3710"/>
                            <mxPoint x="1751" y="3710"/>
                        </Array>
                    </mxGeometry>
                </mxCell>
                <mxCell id="316" value="load data file into target system" style="whiteSpace=wrap;html=1;" vertex="1" parent="1">
                    <mxGeometry x="1531.27" y="3520" width="120" height="60" as="geometry"/>
                </mxCell>
                <mxCell id="317" value="" style="edgeStyle=none;html=1;" edge="1" parent="1" source="318" target="324">
                    <mxGeometry relative="1" as="geometry"/>
                </mxCell>
                <mxCell id="318" value="is the source a database table?" style="rhombus;whiteSpace=wrap;html=1;fillColor=#d5e8d4;strokeColor=#82b366;" vertex="1" parent="1">
                    <mxGeometry x="1710.91" y="3610" width="80" height="80" as="geometry"/>
                </mxCell>
                <mxCell id="319" value="" style="edgeStyle=none;html=1;" edge="1" parent="1" target="321">
                    <mxGeometry relative="1" as="geometry">
                        <mxPoint x="1710.9099999999999" y="3650" as="sourcePoint"/>
                    </mxGeometry>
                </mxCell>
                <mxCell id="320" style="edgeStyle=none;html=1;exitX=0;exitY=0.5;exitDx=0;exitDy=0;entryX=0.5;entryY=0;entryDx=0;entryDy=0;" edge="1" parent="1" source="321" target="324">
                    <mxGeometry relative="1" as="geometry">
                        <Array as="points">
                            <mxPoint x="1470" y="3650"/>
                            <mxPoint x="1470" y="3710"/>
                            <mxPoint x="1750" y="3710"/>
                        </Array>
                    </mxGeometry>
                </mxCell>
                <mxCell id="321" value="load data file into target system" style="whiteSpace=wrap;html=1;" vertex="1" parent="1">
                    <mxGeometry x="1530.91" y="3620" width="120" height="60" as="geometry"/>
                </mxCell>
                <mxCell id="322" value="" style="edgeStyle=none;html=1;" edge="1" parent="1" source="324" target="325">
                    <mxGeometry relative="1" as="geometry"/>
                </mxCell>
                <mxCell id="323" value="" style="edgeStyle=none;html=1;" edge="1" parent="1" source="324" target="327">
                    <mxGeometry relative="1" as="geometry"/>
                </mxCell>
                <mxCell id="324" value="is some of the data private information?" style="rhombus;whiteSpace=wrap;html=1;fillColor=#d5e8d4;strokeColor=#82b366;" vertex="1" parent="1">
                    <mxGeometry x="1710.91" y="3730" width="80" height="80" as="geometry"/>
                </mxCell>
                <mxCell id="325" value="ensure security options are implemeneted" style="whiteSpace=wrap;html=1;" vertex="1" parent="1">
                    <mxGeometry x="1530.91" y="3740" width="120" height="60" as="geometry"/>
                </mxCell>
                <mxCell id="326" value="" style="edgeStyle=none;html=1;" edge="1" parent="1" source="327" target="329">
                    <mxGeometry relative="1" as="geometry"/>
                </mxCell>
                <mxCell id="327" value="ensure constraints are applied" style="whiteSpace=wrap;html=1;" vertex="1" parent="1">
                    <mxGeometry x="1691.27" y="3840" width="120" height="60" as="geometry"/>
                </mxCell>
                <mxCell id="328" style="edgeStyle=none;html=1;exitX=0.5;exitY=1;exitDx=0;exitDy=0;entryX=0.5;entryY=0;entryDx=0;entryDy=0;" edge="1" parent="1" source="329">
                    <mxGeometry relative="1" as="geometry">
                        <mxPoint x="1751.2700000000004" y="4010.000000000001" as="targetPoint"/>
                    </mxGeometry>
                </mxCell>
                <mxCell id="329" value="verify any transformed data" style="whiteSpace=wrap;html=1;" vertex="1" parent="1">
                    <mxGeometry x="1691.27" y="3920" width="120" height="60" as="geometry"/>
                </mxCell>
                <mxCell id="330" value="&lt;font style=&quot;font-size: 9px;&quot;&gt;no&lt;/font&gt;" style="text;html=1;strokeColor=none;fillColor=none;align=center;verticalAlign=middle;whiteSpace=wrap;rounded=0;fontSize=16;" vertex="1" parent="1">
                    <mxGeometry x="1710.91" y="3570" width="60" height="30" as="geometry"/>
                </mxCell>
                <mxCell id="331" value="&lt;font style=&quot;font-size: 9px;&quot;&gt;no&lt;/font&gt;" style="text;html=1;strokeColor=none;fillColor=none;align=center;verticalAlign=middle;whiteSpace=wrap;rounded=0;fontSize=16;" vertex="1" parent="1">
                    <mxGeometry x="1706.91" y="3670" width="60" height="30" as="geometry"/>
                </mxCell>
                <mxCell id="332" value="&lt;font style=&quot;font-size: 9px;&quot;&gt;yes&lt;/font&gt;" style="text;html=1;strokeColor=none;fillColor=none;align=center;verticalAlign=middle;whiteSpace=wrap;rounded=0;fontSize=16;" vertex="1" parent="1">
                    <mxGeometry x="1666.9099999999996" y="3523" width="60" height="30" as="geometry"/>
                </mxCell>
                <mxCell id="333" value="&lt;font style=&quot;font-size: 9px;&quot;&gt;yes&lt;/font&gt;" style="text;html=1;strokeColor=none;fillColor=none;align=center;verticalAlign=middle;whiteSpace=wrap;rounded=0;fontSize=16;" vertex="1" parent="1">
                    <mxGeometry x="1664.9099999999996" y="3624" width="60" height="30" as="geometry"/>
                </mxCell>
                <mxCell id="334" value="&lt;font style=&quot;font-size: 9px;&quot;&gt;no&lt;/font&gt;" style="text;html=1;strokeColor=none;fillColor=none;align=center;verticalAlign=middle;whiteSpace=wrap;rounded=0;fontSize=16;" vertex="1" parent="1">
                    <mxGeometry x="1709.91" y="3792" width="60" height="30" as="geometry"/>
                </mxCell>
                <mxCell id="335" value="&lt;font style=&quot;font-size: 9px;&quot;&gt;yes&lt;/font&gt;" style="text;html=1;strokeColor=none;fillColor=none;align=center;verticalAlign=middle;whiteSpace=wrap;rounded=0;fontSize=16;" vertex="1" parent="1">
                    <mxGeometry x="1665.9099999999996" y="3745" width="60" height="30" as="geometry"/>
                </mxCell>
                <mxCell id="336" value="" style="endArrow=none;dashed=1;html=1;strokeWidth=2;fillColor=#f8cecc;strokeColor=#b85450;" edge="1" parent="1">
                    <mxGeometry width="50" height="50" relative="1" as="geometry">
                        <mxPoint x="1850" y="3156.235638786766" as="sourcePoint"/>
                        <mxPoint x="1850" y="3170" as="targetPoint"/>
                        <Array as="points">
                            <mxPoint x="1850" y="4000"/>
                            <mxPoint x="1850" y="4080"/>
                            <mxPoint x="1650" y="4080"/>
                            <mxPoint x="1650" y="4210"/>
                            <mxPoint x="1310" y="4210"/>
                            <mxPoint x="1310" y="3460"/>
                            <mxPoint x="1640" y="3460"/>
                            <mxPoint x="1640" y="3170"/>
                        </Array>
                    </mxGeometry>
                </mxCell>
                <mxCell id="337" value="&lt;h1&gt;Load data&lt;/h1&gt;&lt;div&gt;Connecting to the NoSQL and properly transferring all information&lt;/div&gt;" style="text;html=1;strokeColor=none;fillColor=none;spacing=5;spacingTop=-20;whiteSpace=wrap;overflow=hidden;rounded=0;" vertex="1" parent="1">
                    <mxGeometry x="1315.25" y="4214" width="218.75" height="120" as="geometry"/>
                </mxCell>
                <mxCell id="338" style="edgeStyle=none;html=1;exitX=0;exitY=0.5;exitDx=0;exitDy=0;" edge="1" parent="1" source="339" target="342">
                    <mxGeometry relative="1" as="geometry"/>
                </mxCell>
                <mxCell id="339" value="test/run through with NZ Bank on changes/new information" style="rounded=0;whiteSpace=wrap;html=1;fillColor=#e1d5e7;strokeColor=#9673a6;" vertex="1" parent="1">
                    <mxGeometry x="1691.54" y="4010" width="120" height="60" as="geometry"/>
                </mxCell>
                <mxCell id="340" style="edgeStyle=none;html=1;exitX=0.5;exitY=1;exitDx=0;exitDy=0;entryX=0;entryY=0.5;entryDx=0;entryDy=0;" edge="1" parent="1" source="342" target="346">
                    <mxGeometry relative="1" as="geometry">
                        <Array as="points">
                            <mxPoint x="1599.27" y="4134"/>
                        </Array>
                    </mxGeometry>
                </mxCell>
                <mxCell id="341" style="edgeStyle=none;html=1;exitX=0;exitY=0.5;exitDx=0;exitDy=0;entryX=1;entryY=0.5;entryDx=0;entryDy=0;" edge="1" parent="1" source="342" target="344">
                    <mxGeometry relative="1" as="geometry"/>
                </mxCell>
                <mxCell id="342" value="is successful?" style="rhombus;whiteSpace=wrap;html=1;rounded=0;fillColor=#d5e8d4;strokeColor=#82b366;" vertex="1" parent="1">
                    <mxGeometry x="1559.7299999999996" y="4000" width="80" height="80" as="geometry"/>
                </mxCell>
                <mxCell id="343" style="edgeStyle=none;html=1;exitX=0.5;exitY=1;exitDx=0;exitDy=0;entryX=0;entryY=0.5;entryDx=0;entryDy=0;" edge="1" parent="1" target="346">
                    <mxGeometry relative="1" as="geometry">
                        <mxPoint x="1704.27" y="4160" as="targetPoint"/>
                        <Array as="points">
                            <mxPoint x="1408" y="4134"/>
                        </Array>
                        <mxPoint x="1408.2700000000004" y="4070" as="sourcePoint"/>
                    </mxGeometry>
                </mxCell>
                <mxCell id="344" value="troubleshoot, enquire perspective from NZ Bank" style="whiteSpace=wrap;html=1;rounded=0;" vertex="1" parent="1">
                    <mxGeometry x="1348" y="4010" width="120" height="60" as="geometry"/>
                </mxCell>
                <mxCell id="345" value="" style="edgeStyle=none;html=1;" edge="1" parent="1" source="346" target="350">
                    <mxGeometry relative="1" as="geometry"/>
                </mxCell>
                <mxCell id="346" value="verify/handle data" style="ellipse;whiteSpace=wrap;html=1;aspect=fixed;fillColor=#dae8fc;strokeColor=#6c8ebf;" vertex="1" parent="1">
                    <mxGeometry x="1711.54" y="4094" width="80" height="80" as="geometry"/>
                </mxCell>
                <mxCell id="347" value="&lt;font style=&quot;font-size: 9px;&quot;&gt;no&lt;/font&gt;" style="text;html=1;strokeColor=none;fillColor=none;align=center;verticalAlign=middle;whiteSpace=wrap;rounded=0;fontSize=16;" vertex="1" parent="1">
                    <mxGeometry x="1512.91" y="4030" width="60" height="30" as="geometry"/>
                </mxCell>
                <mxCell id="348" value="&lt;font style=&quot;font-size: 9px;&quot;&gt;yes&lt;/font&gt;" style="text;html=1;strokeColor=none;fillColor=none;align=center;verticalAlign=middle;whiteSpace=wrap;rounded=0;fontSize=16;" vertex="1" parent="1">
                    <mxGeometry x="1555.6299999999997" y="4064" width="60" height="30" as="geometry"/>
                </mxCell>
                <mxCell id="349" style="edgeStyle=none;html=1;exitX=0.5;exitY=1;exitDx=0;exitDy=0;" edge="1" parent="1" source="350" target="360">
                    <mxGeometry relative="1" as="geometry"/>
                </mxCell>
                <mxCell id="350" value="verify information, review it with NZ Bank&amp;nbsp;" style="whiteSpace=wrap;html=1;" vertex="1" parent="1">
                    <mxGeometry x="1689.9099999999999" y="4220" width="120" height="60" as="geometry"/>
                </mxCell>
                <mxCell id="351" style="edgeStyle=none;html=1;exitX=0;exitY=0.5;exitDx=0;exitDy=0;" edge="1" parent="1" source="360" target="354">
                    <mxGeometry relative="1" as="geometry">
                        <mxPoint x="1679.54" y="4350" as="sourcePoint"/>
                    </mxGeometry>
                </mxCell>
                <mxCell id="352" style="edgeStyle=none;html=1;exitX=0.5;exitY=1;exitDx=0;exitDy=0;entryX=0;entryY=0.5;entryDx=0;entryDy=0;" edge="1" parent="1" source="354" target="362">
                    <mxGeometry relative="1" as="geometry">
                        <Array as="points">
                            <mxPoint x="1588" y="4460"/>
                        </Array>
                        <mxPoint x="1699.54" y="4443.999999999999" as="targetPoint"/>
                    </mxGeometry>
                </mxCell>
                <mxCell id="353" style="edgeStyle=none;html=1;exitX=0;exitY=0.5;exitDx=0;exitDy=0;entryX=1;entryY=0.5;entryDx=0;entryDy=0;" edge="1" parent="1" source="354" target="356">
                    <mxGeometry relative="1" as="geometry"/>
                </mxCell>
                <mxCell id="354" value="is successful?" style="rhombus;whiteSpace=wrap;html=1;rounded=0;fillColor=#d5e8d4;strokeColor=#82b366;" vertex="1" parent="1">
                    <mxGeometry x="1547.7299999999996" y="4310" width="80" height="80" as="geometry"/>
                </mxCell>
                <mxCell id="355" style="edgeStyle=none;html=1;exitX=0.5;exitY=1;exitDx=0;exitDy=0;entryX=0;entryY=0.5;entryDx=0;entryDy=0;" edge="1" parent="1" target="362">
                    <mxGeometry relative="1" as="geometry">
                        <mxPoint x="1710" y="4460" as="targetPoint"/>
                        <Array as="points">
                            <mxPoint x="1396" y="4460"/>
                        </Array>
                        <mxPoint x="1396.2700000000004" y="4380" as="sourcePoint"/>
                    </mxGeometry>
                </mxCell>
                <mxCell id="356" value="troubleshoot, enquire perspective from NZ Bank" style="whiteSpace=wrap;html=1;rounded=0;" vertex="1" parent="1">
                    <mxGeometry x="1336" y="4320" width="120" height="60" as="geometry"/>
                </mxCell>
                <mxCell id="357" value="&lt;font style=&quot;font-size: 9px;&quot;&gt;no&lt;/font&gt;" style="text;html=1;strokeColor=none;fillColor=none;align=center;verticalAlign=middle;whiteSpace=wrap;rounded=0;fontSize=16;" vertex="1" parent="1">
                    <mxGeometry x="1500.91" y="4340" width="60" height="30" as="geometry"/>
                </mxCell>
                <mxCell id="358" value="&lt;font style=&quot;font-size: 9px;&quot;&gt;yes&lt;/font&gt;" style="text;html=1;strokeColor=none;fillColor=none;align=center;verticalAlign=middle;whiteSpace=wrap;rounded=0;fontSize=16;" vertex="1" parent="1">
                    <mxGeometry x="1543.6299999999997" y="4374" width="60" height="30" as="geometry"/>
                </mxCell>
                <mxCell id="359" style="edgeStyle=none;html=1;exitX=0.5;exitY=1;exitDx=0;exitDy=0;entryX=0.5;entryY=0;entryDx=0;entryDy=0;" edge="1" parent="1" source="360" target="362">
                    <mxGeometry relative="1" as="geometry"/>
                </mxCell>
                <mxCell id="360" value="test/run through with NZ Bank on changes/new information" style="rounded=0;whiteSpace=wrap;html=1;fillColor=#e1d5e7;strokeColor=#9673a6;" vertex="1" parent="1">
                    <mxGeometry x="1689.9099999999999" y="4320" width="120" height="60" as="geometry"/>
                </mxCell>
                <mxCell id="361" value="" style="edgeStyle=none;html=1;" edge="1" parent="1" source="362" target="367">
                    <mxGeometry relative="1" as="geometry"/>
                </mxCell>
                <mxCell id="362" value="maintenance" style="ellipse;whiteSpace=wrap;html=1;aspect=fixed;fillColor=#dae8fc;strokeColor=#6c8ebf;" vertex="1" parent="1">
                    <mxGeometry x="1710.9099999999999" y="4420" width="80" height="80" as="geometry"/>
                </mxCell>
                <mxCell id="363" value="" style="endArrow=none;dashed=1;html=1;strokeWidth=2;fillColor=#f8cecc;strokeColor=#b85450;" edge="1" parent="1">
                    <mxGeometry width="50" height="50" relative="1" as="geometry">
                        <mxPoint x="1847" y="4093" as="sourcePoint"/>
                        <mxPoint x="1847.4499999999998" y="4092.9500000000007" as="targetPoint"/>
                        <Array as="points">
                            <mxPoint x="1847" y="4400"/>
                            <mxPoint x="1680" y="4400"/>
                            <mxPoint x="1680" y="4490"/>
                            <mxPoint x="1310" y="4490"/>
                            <mxPoint x="1310" y="4300"/>
                            <mxPoint x="1680" y="4300"/>
                            <mxPoint x="1680" y="4093"/>
                        </Array>
                    </mxGeometry>
                </mxCell>
                <mxCell id="364" value="&lt;h1&gt;Verify data&lt;/h1&gt;&lt;div&gt;Making sure all data is verified by NZ Bank, ensuring that everything is implemented correctly and applying room for testing and any changes if needed&lt;/div&gt;" style="text;html=1;strokeColor=none;fillColor=none;spacing=5;spacingTop=-20;whiteSpace=wrap;overflow=hidden;rounded=0;" vertex="1" parent="1">
                    <mxGeometry x="1324.88" y="4490" width="218.75" height="120" as="geometry"/>
                </mxCell>
                <mxCell id="365" value="&lt;h1&gt;Maintenance for data&lt;/h1&gt;&lt;div&gt;Long term implication - used to make sure to keep the quality of this integration as best as it can be and acting quickly if a bug appears&lt;/div&gt;" style="text;html=1;strokeColor=none;fillColor=none;spacing=5;spacingTop=-20;whiteSpace=wrap;overflow=hidden;rounded=0;" vertex="1" parent="1">
                    <mxGeometry x="1639.46" y="4770" width="218.75" height="120" as="geometry"/>
                </mxCell>
                <mxCell id="366" style="edgeStyle=none;html=1;exitX=0.5;exitY=1;exitDx=0;exitDy=0;entryX=0.5;entryY=0;entryDx=0;entryDy=0;" edge="1" parent="1" source="367" target="368">
                    <mxGeometry relative="1" as="geometry"/>
                </mxCell>
                <mxCell id="367" value="troubleshoot when required, acting on fixing bugs as quickly and efficiently as possible" style="whiteSpace=wrap;html=1;fillColor=#dae8fc;strokeColor=#6c8ebf;" vertex="1" parent="1">
                    <mxGeometry x="1690.9099999999999" y="4540" width="120" height="60" as="geometry"/>
                </mxCell>
                <mxCell id="368" value="data integrated from SQL to NoSQL" style="ellipse;whiteSpace=wrap;html=1;fillColor=#e1d5e7;strokeColor=#9673a6;" vertex="1" parent="1">
                    <mxGeometry x="1691.27" y="4660" width="120" height="80" as="geometry"/>
                </mxCell>
                <mxCell id="369" value="" style="endArrow=none;dashed=1;html=1;strokeWidth=2;" edge="1" parent="1">
                    <mxGeometry width="50" height="50" relative="1" as="geometry">
                        <mxPoint x="1700" y="4410" as="sourcePoint"/>
                        <mxPoint x="1703.2700000000004" y="4410" as="targetPoint"/>
                        <Array as="points">
                            <mxPoint x="1820" y="4410"/>
                            <mxPoint x="1820" y="4770"/>
                            <mxPoint x="1670" y="4770"/>
                            <mxPoint x="1670" y="4500"/>
                            <mxPoint x="1700" y="4500"/>
                        </Array>
                    </mxGeometry>
                </mxCell>
                <mxCell id="372" value="&lt;font style=&quot;font-size: 9px;&quot;&gt;yes&lt;/font&gt;" style="text;html=1;strokeColor=none;fillColor=none;align=center;verticalAlign=middle;whiteSpace=wrap;rounded=0;fontSize=16;" vertex="1" parent="1">
                    <mxGeometry x="636" y="1875" width="60" height="30" as="geometry"/>
                </mxCell>
            </root>
        </mxGraphModel>
    </diagram>
</mxfile>